<?xml version="1.0" encoding="utf-8"?>
<!-- Generator: Adobe Illustrator 26.0.1, SVG Export Plug-In . SVG Version: 6.00 Build 0)  -->
<svg version="1.1" id="Layer_1" xmlns="http://www.w3.org/2000/svg" xmlns:xlink="http://www.w3.org/1999/xlink" x="0px" y="0px"
	 viewBox="0 0 1000 1000" style="enable-background:new 0 0 1000 1000;" xml:space="preserve">
<style type="text/css">
	.st0{fill:url(#SVGID_1_);}
	.st1{opacity:0.35;}
	.st2{clip-path:url(#SVGID_00000140706962580620766930000013021810515043106993_);}
	.st3{fill:url(#SVGID_00000137133713658961054310000015377899577586448567_);}
	.st4{fill:url(#SVGID_00000179627279566710121830000011779348896523943810_);}
	.st5{fill:#3177BD;}
	.st6{fill:url(#SVGID_00000121280413803774417510000001392979829049607298_);}
	.st7{fill:url(#SVGID_00000178178853561263396920000006516144501742747563_);}
	.st8{fill:#FFFFFF;}
	.st9{fill:url(#SVGID_00000102538213672863952080000003010041584008982148_);}
	.st10{fill:url(#SVGID_00000179622926004718876850000008708304957401210773_);}
	.st11{fill:url(#SVGID_00000048483899353251846890000002625951990029213103_);}
	.st12{fill:url(#SVGID_00000137832073000236662520000012805356455826353063_);}
	.st13{fill:url(#SVGID_00000137132989842995147910000003450996756212548275_);}
	.st14{fill:url(#SVGID_00000117663669407148548260000016361460413767945100_);}
	.st15{fill:url(#SVGID_00000104670554702332422930000013679318673182727059_);}
	.st16{fill:url(#SVGID_00000002352715820716775890000015292284155425609879_);}
	.st17{fill:url(#SVGID_00000132780597353205850270000000022277737700934825_);}
	.st18{fill:url(#SVGID_00000105405080921869692450000002127725536017549749_);}
	.st19{fill:url(#SVGID_00000003097751460279922030000003080765329397735043_);}
	.st20{fill:url(#SVGID_00000155850907419665626610000009738759976234151602_);}
	.st21{fill:url(#SVGID_00000054242693067600406070000010853051327383976375_);}
	.st22{fill:url(#SVGID_00000103979303067025773480000006166883879719128477_);}
	.st23{fill:url(#SVGID_00000053537144805057973120000009863467126198762406_);}
	.st24{fill:url(#SVGID_00000128454251689843185670000001249973010177345943_);}
	.st25{fill:url(#SVGID_00000000924829611379750610000003189881447857108630_);}
</style>
<g>
	<g>
		<path d="M514.1,430.8c0,0,11.9,35.3-1.8,74.4l-12.2-30.5l-11.1,30.5c0,0-14.7-32-2.3-74.4l5.2-4.2h14.5l6.8,1.5L514.1,430.8z"/>
		<linearGradient id="SVGID_1_" gradientUnits="userSpaceOnUse" x1="294.5732" y1="397.741" x2="705.6337" y2="397.741">
			<stop  offset="0" style="stop-color:#3256AA"/>
			<stop  offset="1" style="stop-color:#2D8FD0"/>
		</linearGradient>
		<path class="st0" d="M544.9,251.1c9.5,33.8,9.9,82.2-17,148.6c0,0-6.6,3.6-17.3,3.6c0,0,3.3-36.1-10.5-39.7
			c-13.7,3.6-10.5,39.7-10.5,39.7c-10.8,0-17.3-3.6-17.3-3.6c-26.9-66.5-26.5-114.8-17-148.6c-92,20.4-160.8,102.5-160.8,200.6
			c0,18.9,2.6,37.1,7.3,54.5c9.4-12.1,23.9-19.8,40.2-19.8c28.4,0,51.4,23.5,51.4,52.6c0,1.9-0.1,3.7-0.3,5.5c5.9-6,14-9.7,23-9.7
			c8.5,0,16.3,3.3,22.1,8.8l0,0c0,0,35.1-46.3,43.6-111.5c0,0,11.7-7.5,13.5,13.4c0,0,1.2,18.4,4.8,24.5c0,0,6.2-12.5,6.4-26.3
			c0,0-2.3-13.3,10-12.9c0,0,14.4,66.9,44.7,112.8l0,0c5.8-5.5,13.6-8.8,22.1-8.8c9,0,17.1,3.7,23,9.7c-0.2-1.8-0.3-3.6-0.3-5.5
			c0-29,23-52.6,51.4-52.6c16.6,0,31.4,8.1,40.7,20.6c4.9-17.6,7.5-36.1,7.5-55.2C705.6,353.6,636.9,271.5,544.9,251.1z
			 M444.5,435.9l-2.3,12l-4.5-11.3c-13.1-32.7-9.1-53.5-3.4-65.2c6.4-13,16.1-18,16.5-18.2l3.7-1.9l14.8,46.5l-3,1.3
			C450.4,406,444.5,435.6,444.5,435.9z M465.7,403.1c0.5-0.7,1.4-0.9,2.1-0.4c0.1,0.1,7.1,4.6,21.3,5.1c0.8,0,1.5,0.7,1.4,1.6
			c0,0.8-0.7,1.4-1.5,1.4c0,0,0,0-0.1,0c-15.2-0.6-22.6-5.4-22.9-5.6C465.4,404.7,465.2,403.8,465.7,403.1z M490.8,426.6
			c-21.3,0.9-17.9-14.3-17.9-14.3l17.9,2V426.6z M510.5,426.6v-12.3l17.9-2C528.4,412.3,531.8,427.4,510.5,426.6z M535.3,405.1
			c-0.3,0.2-7.7,5-22.9,5.6c0,0,0,0-0.1,0c-0.8,0-1.5-0.6-1.5-1.4c0-0.8,0.6-1.5,1.4-1.6c14.3-0.6,21.3-5.1,21.3-5.1
			c0.7-0.5,1.6-0.3,2.1,0.4C536.2,403.8,536,404.7,535.3,405.1z M563.6,436.6l-4.6,11.3l-2.3-12c-0.1-0.4-6-29.9-21.8-36.8l-3-1.3
			l14.8-46.5l3.7,1.9c0.4,0.2,10.1,5.2,16.5,18.2C572.7,383.1,576.8,403.9,563.6,436.6z"/>
		<g class="st1">
			<defs>
				<path id="SVGID_00000110429861052889046110000009351224378310977713_" class="st1" d="M544.9,251.1c9.5,33.8,9.9,82.2-17,148.6
					c0,0-6.6,3.6-17.3,3.6c0,0,3.3-36.1-10.5-39.7c-13.7,3.6-10.5,39.7-10.5,39.7c-10.8,0-17.3-3.6-17.3-3.6
					c-26.9-66.5-26.5-114.8-17-148.6c-92,20.4-160.8,102.5-160.8,200.6c0,18.9,2.6,37.1,7.3,54.5c9.4-12.1,23.9-19.8,40.2-19.8
					c28.4,0,51.4,23.5,51.4,52.6c0,1.9-0.1,3.7-0.3,5.5c5.9-6,14-9.7,23-9.7c8.5,0,16.3,3.3,22.1,8.8l0,0c0,0,35.1-46.3,43.6-111.5
					c0,0,11.7-7.5,13.5,13.4c0,0,1.2,18.4,4.8,24.5c0,0,6.2-12.5,6.4-26.3c0,0-2.3-13.3,10-12.9c0,0,14.4,66.9,44.7,112.8l0,0
					c5.8-5.5,13.6-8.8,22.1-8.8c9,0,17.1,3.7,23,9.7c-0.2-1.8-0.3-3.6-0.3-5.5c0-29,23-52.6,51.4-52.6c16.6,0,31.4,8.1,40.7,20.6
					c4.9-17.6,7.5-36.1,7.5-55.2C705.6,353.6,636.9,271.5,544.9,251.1z M444.5,435.9l-2.3,12l-4.5-11.3
					c-13.1-32.7-9.1-53.5-3.4-65.2c6.4-13,16.1-18,16.5-18.2l3.7-1.9l14.8,46.5l-3,1.3C450.4,406,444.5,435.6,444.5,435.9z
					 M465.7,403.1c0.5-0.7,1.4-0.9,2.1-0.4c0.1,0.1,7.1,4.6,21.3,5.1c0.8,0,1.5,0.7,1.4,1.6c0,0.8-0.7,1.4-1.5,1.4c0,0,0,0-0.1,0
					c-15.2-0.6-22.6-5.4-22.9-5.6C465.4,404.7,465.2,403.8,465.7,403.1z M490.8,426.6c-21.3,0.9-17.9-14.3-17.9-14.3l17.9,2V426.6z
					 M510.5,426.6v-12.3l17.9-2C528.4,412.3,531.8,427.4,510.5,426.6z M535.3,405.1c-0.3,0.2-7.7,5-22.9,5.6c0,0,0,0-0.1,0
					c-0.8,0-1.5-0.6-1.5-1.4c0-0.8,0.6-1.5,1.4-1.6c14.3-0.6,21.3-5.1,21.3-5.1c0.7-0.5,1.6-0.3,2.1,0.4
					C536.2,403.8,536,404.7,535.3,405.1z M563.6,436.6l-4.6,11.3l-2.3-12c-0.1-0.4-6-29.9-21.8-36.8l-3-1.3l14.8-46.5l3.7,1.9
					c0.4,0.2,10.1,5.2,16.5,18.2C572.7,383.1,576.8,403.9,563.6,436.6z"/>
			</defs>
			<clipPath id="SVGID_00000000196035710878053390000008324493015607692172_">
				<use xlink:href="#SVGID_00000110429861052889046110000009351224378310977713_"  style="overflow:visible;"/>
			</clipPath>
			<g style="clip-path:url(#SVGID_00000000196035710878053390000008324493015607692172_);">
				<path d="M632.5,612.6c0-7.7-0.1-15.4,0-23.1c0-2.1-0.6-3.7-2.1-5.2c-3.8-3.6-7.5-7.4-11.2-11.1c-0.7-0.7-1.4-1.3-2.8-2.5
					c-1.9,2.2-3.5,4.4-5.4,6.3c-5.2,5.3-10.4,10.6-15.7,15.7c-1.7,1.7-2.6,3.4-2.5,5.9c0.2,4.7,0,9.4,0,14c-0.4,0-0.8,0-1.2,0
					c0-5.5-0.2-10.9,0-16.3c0-1.2,0.9-2.5,1.8-3.4c6.7-6.8,13.5-13.5,20.2-20.3c0.8-0.7,1.7-1.2,3-2.1c-4.5-4.5-8.3-8.3-12.2-12
					c-0.4-0.3-1.9-0.1-2.4,0.4c-10,9.9-20.1,19.9-30,30c-0.8,0.8-1.1,2.4-1.2,3.7c-0.2,6.7-0.2,13.4-0.3,20.1c-0.4,0-0.8,0-1.2,0
					c0-6.6,0.1-13.3,0-19.9c0-2.3,0.6-4,2.3-5.7c9.5-9.4,18.9-18.9,28.4-28.3c2-1.9,1.8-3,0-4.9c-7-6.8-13.8-13.8-20.8-20.6
					c-1.7-1.6-2.4-3.3-2.4-5.6c0.1-20.4,0-40.8,0.1-61.1c0-2.1-0.3-3.6-2.5-4.7c-2.5-1.2-3.5-4.4-2.7-7.1c0.7-2.4,3.2-4.2,5.8-4.2
					c2.6,0,5.1,1.8,5.7,4.2c0.8,2.9-0.1,5.8-2.8,7c-2.1,1-2.5,2.3-2.5,4.4c0.1,20.5,0,41,0.1,61.4c0,1.6,0.8,3.5,1.8,4.6
					c6.9,7.2,14.1,14.1,21,21.2c1.7,1.8,2.6,1.5,4.5,0c3.6-3,4.8-6.4,4.7-11.1c-0.3-13.2-0.1-26.3-0.1-39.5c0-1.8-0.3-3-2.1-4
					c-2.5-1.2-3.5-4-2.7-6.4c0.8-2.6,2.6-4.1,5.4-4.1c2.8,0,4.7,1.3,5.5,4c0.8,2.7,0.1,5.2-2.5,6.5c-2,1-2.2,2.4-2.2,4.3
					c0,13.9-0.1,27.9,0.1,41.8c0,3.1-0.6,5.5-3.1,7.4c-1.5,1.1-2.9,2.4-4.2,3.5c4.7,4.6,8.8,8.6,13.1,12.8c0.1-0.1,0.7-0.5,1.3-1.1
					c9-9,18.1-18,27.1-27.1c0.9-0.9,1.7-2.5,1.7-3.8c0.1-24.1,0.1-48.2,0.1-72.3c0-0.4-0.1-0.7-0.2-1.8c-1.2,1.1-2.1,1.9-2.9,2.8
					c-3.5,3.6-8.2,6.6-10,10.8c-1.8,4.3-0.6,9.8-0.7,14.7c0,9.3,0,18.5,0,27.8c0,1.8,0.4,3,2.2,3.9c2.7,1.3,3.7,4.1,3,6.9
					c-0.7,2.6-3,4.4-5.9,4.3c-2.7,0-5-1.7-5.7-4.2c-0.8-2.8,0.2-5.6,2.9-6.9c2-1,2.3-2.3,2.3-4.2c0-13.3,0-26.5-0.1-39.8
					c0-2.2,0.6-3.9,2.2-5.4c3.8-3.6,7.6-7.3,11.1-11.2c0.9-1,1.4-2.5,1.6-3.8c0.3-2.2,0-4.5,0.1-6.7c0.1-2.9,0.3-5.5-3.3-7.2
					c-2.4-1.1-2.9-4-1.9-6.7c0.9-2.6,3.4-4.3,6.1-4.1c2.8,0.2,4.8,1.6,5.7,4.3c0.8,2.5-0.1,5.8-2.4,6.9c-2.6,1.2-2.9,3-2.8,5.4
					c0.1,2.6,0,5.2,0.7,8.3c1.8-1.8,3.4-3.8,5.5-5.3c4.5-3.4,5.8-7.7,5.7-13.4c-0.4-19.9-0.2-39.8-0.1-59.7c0-2.1-0.3-3.6-2.4-4.8
					c-2.3-1.3-3.3-3.6-2.4-6.3c0.9-2.4,2.7-3.8,5.3-3.8c2.6,0,4.3,1.4,5.1,3.7c0.9,2.7,0.2,5.2-2.4,6.5c-2,1-2.2,2.4-2.2,4.3
					c0,21.4,0,42.7,0.1,64.1c0,3-0.8,5.2-3,7.1c-2.7,2.4-5.1,5.1-7.7,7.6c-1.6,1.5-2.2,3.2-2.2,5.4c0.1,23.8,0,47.6,0.1,71.4
					c0,2.8-0.8,4.7-2.8,6.7c-8.7,8.5-17.3,17.2-25.9,25.8c-0.7,0.7-1.4,1.5-2.5,2.6c4.4,4.3,8.5,8.6,12.8,12.6
					c2.3,2.1,3.1,4.4,3,7.4c-0.2,7.4-0.1,14.8,0,22.2C633.3,612.6,632.9,612.6,632.5,612.6z M638.1,527.7c0-2.6-2.4-5-5.1-5
					c-2.6,0-5,2.5-5,5.1c0,2.6,2.5,5,5.1,5C635.7,532.8,638.1,530.3,638.1,527.7z M582.5,456.6c0-2.7-2.3-5-5.1-5
					c-2.7,0-4.9,2.2-5,4.8c-0.1,2.7,2.2,5.1,4.9,5.1C580.2,461.6,582.5,459.3,582.5,456.6z M648.1,444.5c2.7,0,4.8-2.1,4.8-4.8
					c0-2.7-2.1-4.8-4.8-4.8c-2.7,0-4.9,2.2-4.9,4.8C643.2,442.2,645.5,444.5,648.1,444.5z"/>
				<path d="M413,612.6c0-5.1-0.1-10.1,0.2-15.2c0.1-1.6,0.8-3.4,1.9-4.6c6.8-7,13.7-13.9,20.7-20.7c1.8-1.7,1.7-2.8,0-4.4
					c-2.9-2.7-5.7-5.6-8.5-8.5c-1.3-1.4-2.3-1.7-3.8-0.1c-9.7,9.8-19.6,19.6-29.3,29.5c-0.9,0.9-1.4,2.6-1.4,3.9
					c-0.2,6.7-0.1,13.5-0.2,20.2c-0.4,0-0.8,0-1.2,0c0-7.1-0.2-14.2,0-21.3c0-1.3,1-2.9,2-3.9c9.4-9.5,18.8-18.9,28.3-28.4
					c0.8-0.7,1.8-1.2,2.9-2c-1.2-1.4-1.9-2.2-2.6-2.9c-6.8-6.8-13.6-13.7-20.5-20.5c-1.8-1.8-2.6-3.6-2.6-6.1
					c0.1-20.2,0-40.4,0.1-60.6c0-2.3-0.1-4-2.7-5.1c-2.6-1.1-3.5-4.1-2.7-6.7c0.8-2.6,3.2-4.4,5.9-4.4c2.6,0,5.1,2,5.8,4.5
					c0.7,2.6-0.3,5.6-2.9,6.7c-2.4,1-2.7,2.6-2.7,4.8c0.2,20.3,0.3,40.6,0.3,60.8c0,2.2,0.6,3.9,2.2,5.4
					c6.6,6.5,13.1,13.1,19.7,19.6c1,0.9,2,1.8,3.1,2.7c4.1-3.3,7.2-6.3,7-12.3c-0.5-13.2-0.2-26.5-0.1-39.8c0-2-0.3-3.4-2.3-4.5
					c-2.5-1.4-3.2-3.9-2.3-6.6c0.9-2.6,2.9-3.9,5.6-3.8c2.6,0.1,4.4,1.5,5.2,4c0.8,2.5-0.1,5.4-2.6,6.5c-2.2,1-2.3,2.5-2.3,4.4
					c0,13.9-0.1,27.9,0.1,41.8c0,3.1-0.6,5.5-3.1,7.4c-1.5,1.1-2.9,2.2-4.2,3.2c4.8,4.7,8.9,8.6,13.2,12.8c0.1-0.1,0.8-0.6,1.4-1.2
					c8.9-8.9,17.8-17.7,26.6-26.7c1-1.1,2-2.8,2-4.2c0.1-23.9,0.1-47.8,0.1-71.7c0-0.5-0.1-1-0.1-1.9c-0.8,0.6-1.4,0.9-1.9,1.4
					c-3.4,3.4-6.9,6.7-10.1,10.2c-0.9,1-1.7,2.7-1.7,4.1c-0.1,13.4-0.1,26.7-0.1,40.1c0,1.8,0.3,3,2.2,3.9c2.8,1.2,3.9,4.1,3.3,6.8
					c-0.7,2.8-2.8,4.5-5.7,4.6c-3.1,0.1-5.3-1.5-6.1-4.4c-0.7-2.6,0.4-5.6,3.2-6.8c2-0.9,2.3-2.3,2.3-4.2c0-13.1,0-26.1-0.1-39.2
					c0-2.7,0.8-4.6,2.7-6.4c3.6-3.3,7-6.8,10.3-10.4c0.9-1,1.5-2.7,1.7-4.1c0.3-2.2,0-4.5,0.1-6.7c0.1-2.9,0.3-5.5-3.2-7.3
					c-3.1-1.6-3-6.5-0.5-9c2.6-2.7,6.9-2.5,9.3,0.5c2.3,2.8,1.9,7.2-1.4,8.9c-2.6,1.4-3,3.1-2.8,5.6c0.2,2.6,0,5.2,0,7.8
					c0.2,0.1,0.5,0.3,0.7,0.4c2.6-2.6,5-5.3,7.8-7.6c2.7-2.3,3.5-4.9,3.5-8.4c-0.1-20.7-0.1-41.3,0-62c0-2.2-0.1-4-2.6-5.2
					c-2.5-1.2-3.1-3.7-2.2-6.3c0.8-2.5,2.7-3.8,5.4-3.7c2.6,0.1,4.5,1.5,5.2,4c0.7,2.6,0,5.1-2.5,6.2c-2.2,1-2.4,2.4-2.4,4.4
					c0,21.3,0,42.5,0.1,63.8c0,3.1-0.7,5.4-3,7.4c-2.7,2.4-5.3,4.9-7.6,7.7c-1.1,1.4-2.1,3.4-2.1,5.1c-0.1,24-0.1,48,0,72
					c0,2.4-0.7,4.2-2.4,5.9c-8.8,8.7-17.5,17.5-26.4,26.2c-2,1.9-1.9,3.1,0,4.9c4,3.7,7.8,7.6,11.6,11.6c0.9,0.9,1.7,2.3,1.7,3.5
					c0.1,8.3,0,16.6,0,24.9c-0.2,0-0.4,0-0.6,0c0-7.7,0.1-15.4-0.2-23.1c-0.1-1.7-0.9-3.8-2.1-5.1c-4.2-4.6-8.7-8.9-13.2-13.5
					c-1,0.9-1.7,1.5-2.4,2.1c-6.7,6.7-13.4,13.3-20,20.1c-1.1,1.1-1.9,3-1.9,4.5c-0.2,5,0,9.9,0,14.9
					C414.2,612.6,413.6,612.6,413,612.6z M399.4,461.6c2.9-0.1,4.9-2.3,4.8-5.1c-0.1-2.7-2.2-4.8-4.9-4.8c-2.8,0-5,2.1-5,5
					C394.3,459.4,396.6,461.6,399.4,461.6z M454.9,522.7c-2.7,0-5,2.3-5,5.1c0,2.8,2.4,5,5.1,5c2.6-0.1,4.8-2.3,4.8-4.9
					C459.9,525.1,457.6,522.7,454.9,522.7z M474.8,439.6c0-2.6-2.2-4.8-4.8-4.8c-2.7,0-4.8,2-4.8,4.8c0,2.7,2.1,4.9,4.8,4.9
					C472.6,444.4,474.8,442.3,474.8,439.6z"/>
				<path d="M720.3,581.6c-3.9,1.9-7.4,1-9-2.2c-1.7-3.3-0.5-6.4,3.2-8.8c0.9-0.6,1.5-2.1,1.5-3.3c0.1-10,0.1-20.1,0.1-30.1
					c0-14.5,0-29.1,0-43.6c0-2.2-0.7-3.8-2.3-5.4c-7.3-7.2-14.5-14.5-21.8-21.7c-1.7-1.6-2.3-3.3-2.3-5.7c0.1-9.9,0-19.9,0.1-29.8
					c0-1.8-0.3-3-2.1-4c-2.5-1.3-3.4-3.7-2.6-6.5c0.8-2.6,2.7-4,5.4-4.1c2.6-0.1,4.9,1.7,5.5,4.3c0.6,2.7-0.3,5-2.7,6.2
					c-1.8,0.9-2.2,2-2.2,3.9c0.1,10,0,20.1,0.1,30.1c0,1.5,0.8,3.4,1.9,4.5c7.3,7.5,14.7,14.9,22.1,22.2c1.6,1.6,2.2,3.2,2.2,5.4
					c-0.1,24.6,0,49.1-0.1,73.7c0,2.2,0.3,3.8,2.8,4.2c0,0.6,0,1.2,0,1.8c-0.5-0.3-1-0.6-1.6-0.8c-2.2-0.8-4.7-0.6-5.7,1.6
					c-0.7,1.6-0.7,4,0,5.6c1,2.1,3.3,2.5,5.6,1.7c0.5-0.2,1.1-0.3,1.7-0.5C720.3,580.8,720.3,581.2,720.3,581.6z"/>
				<path d="M485,179.6c0,17.1-0.2,34.1-0.1,51.2c0,3.5-1,6-3.5,8.4c-11.4,11.2-22.6,22.6-34,33.8c-1.6,1.6-2.3,3.1-2.3,5.4
					c0.1,6.8,0.1,13.6,0,20.5c0,1.8,0.4,3,2.2,4c2.5,1.3,3.5,3.7,2.7,6.4c-0.8,2.6-2.7,4.1-5.4,4.1c-2.7,0-4.7-1.3-5.5-4
					c-0.8-2.8,0-5.1,2.5-6.5c1.8-1,2.2-2.2,2.1-4c-0.1-7,0.1-14-0.1-21c0-2.3,0.7-3.8,2.3-5.4c11.6-11.5,23.2-23.2,34.8-34.7
					c1.7-1.7,2.5-3.4,2.5-5.9c-0.1-17.4-0.1-34.9-0.1-52.3C483.8,179.6,484.4,179.6,485,179.6z"/>
				<path d="M414.8,179.6c0,4.8-0.1,9.6-0.1,14.3c0,36.3,0,72.5,0,108.8c0,2.4,0.2,4.2,2.7,5.4c2.5,1.2,3.3,4.3,2.4,6.9
					c-0.8,2.6-3.3,4.4-5.9,4.4c-2.8,0-5.3-2-6-4.7c-0.7-2.6,0.3-5.5,2.7-6.8c1.6-0.9,2.5-1.7,2.5-3.7c-0.1-41.5-0.1-83.1-0.1-124.6
					C413.6,179.6,414.2,179.6,414.8,179.6z M418.7,313.3c0.1-2.7-2-4.8-4.7-4.9c-2.8-0.1-4.9,1.9-5,4.6c-0.1,2.6,2.1,4.9,4.7,5
					C416.3,318.1,418.6,315.9,418.7,313.3z"/>
				<path d="M466.8,612.6c0-11.1,0.1-22.2,0-33.4c0-2.3,0.6-4,2.3-5.7c8.1-8,16.1-16.1,24.3-24.1c1.5-1.5,2.1-3,2.1-5.1
					c-0.1-17.4-0.1-34.7,0-52.1c0-2.2-0.3-3.8-2.6-5c-2.4-1.3-3.1-3.7-2.2-6.3c0.8-2.4,2.6-3.6,5.1-3.6c2.6,0,4.6,1.1,5.3,3.7
					c0.7,2.6,0.2,5-2.3,6.3c-2.1,1.1-2.3,2.6-2.3,4.5c0,17.4,0,34.7,0.1,52.1c0,2.5-0.8,4.4-2.6,6.2c-8,7.8-15.9,15.9-23.9,23.7
					c-1.6,1.5-2.3,3.1-2.3,5.4c0.1,11.1,0.1,22.2,0.1,33.4C467.6,612.6,467.2,612.6,466.8,612.6z"/>
				<path d="M645.4,612.6c0-11.7-0.2-23.4,0-35.1c0-1.3,1.1-2.9,2.1-3.9c7.9-8,15.8-15.9,23.8-23.8c1.7-1.7,2.4-3.5,2.4-5.9
					c-0.1-17.4-0.1-34.7,0-52.1c0-2-0.3-3.4-2.3-4.5c-2.5-1.3-3-3.8-2.3-6.3c0.7-2.5,2.5-3.6,5.1-3.6c2.7-0.1,4.5,1.1,5.4,3.6
					c0.9,2.6,0.2,5-2,6.1c-2.6,1.4-2.8,3.3-2.8,5.7c0.1,17,0,33.9,0.1,50.9c0,3-0.9,5.1-3,7.1c-7.9,7.7-15.6,15.6-23.4,23.3
					c-1.6,1.6-2.3,3.2-2.3,5.4c0.1,11,0,22-0.1,33C645.7,612.6,645.6,612.6,645.4,612.6z"/>
				<path d="M545.3,612.6c1-5.9-0.8-10.4-5.5-14.6c-8.1-7.3-15.5-15.4-23.3-23c-2-1.9-2.8-3.9-2.8-6.7c0.1-16,0-32,0.1-48
					c0-2-0.3-3.4-2.4-4.4c-2.6-1.3-3.6-4.3-2.8-7c0.8-2.7,3.4-4.6,6.1-4.5c2.7,0.1,5.1,2,5.8,4.6c0.8,2.7-0.3,5.8-2.9,7
					c-1.9,0.9-2.4,2.2-2.4,4.1c0,16.3,0.1,32.6,0,48.8c0,2.1,0.7,3.6,2.2,5.1c8.8,8.7,17.5,17.6,26.3,26.2c2.3,2.2,3.4,4.5,3.1,7.7
					c-0.2,1.5,0,3.1,0.1,4.7C546.4,612.6,545.9,612.6,545.3,612.6z M519.4,510.8c0.1-2.6-2.1-5-4.7-5c-2.6-0.1-4.9,2.1-5,4.7
					c-0.1,2.7,2,4.9,4.7,4.9C517.1,515.5,519.3,513.4,519.4,510.8z"/>
				<path d="M720.3,342.2c-4.1,4-8.3,8-12.2,12.1c-0.8,0.8-1.2,2.2-1.2,3.4c-0.1,24.3,0,48.5-0.1,72.8c0,2,0.9,2.9,2.5,3.7
					c2.5,1.4,3.5,4.4,2.7,7.1c-0.8,2.7-3.4,4.6-6.2,4.5c-2.6-0.1-5.1-2-5.8-4.6c-0.8-2.7,0.3-5.7,2.9-7c2.2-1,2.3-2.5,2.3-4.5
					c0-23.5,0-47-0.1-70.5c0-3,0.8-5.1,3-7.2c4.2-3.8,8.1-7.8,12.2-11.7C720.3,341.1,720.3,341.7,720.3,342.2z M706,444.4
					c2.6,0,4.8-2.2,4.8-4.8c0-2.6-2.2-4.8-4.8-4.8c-2.6,0-4.8,2.2-4.8,4.8C701.1,442.2,703.3,444.4,706,444.4z"/>
				<path d="M289.1,605.5c0.2-0.1,0.3-0.1,0.5-0.2c0.1-8.4,0.1-16.8,0-25.2c0-2.7,0.8-4.6,2.7-6.4c7.9-7.7,15.6-15.6,23.4-23.3
					c1.9-1.9,2.6-3.8,2.6-6.4c-0.1-17.3,0-34.5-0.1-51.8c0-2.2,0.2-3.8,2.5-5c2.4-1.2,3.3-3.6,2.3-6.3c-0.9-2.5-2.7-3.7-5.4-3.7
					c-2.7,0.1-4.4,1.5-5.1,4c-0.7,2.6,0.1,5,2.6,6.2c2,0.9,2.3,2.3,2.3,4.2c0,17.4-0.1,34.9,0,52.3c0,2.2-0.8,3.8-2.3,5.4
					c-8.1,8-16.2,16.1-24.2,24.2c-1,1-2,2.6-2.1,3.9c-0.1,9.4-0.1,18.8,0,28.1C288.9,605.6,289,605.6,289.1,605.5z"/>
				<path d="M288.9,608.8c0,1.3,0,2.5,0,3.8h0.6c0-1.2,0-2.5,0-3.7C289.3,608.9,289.1,608.8,288.9,608.8z"/>
				<path d="M541.8,179.6c0.1,0.3,0.2,0.6,0.4,0.7c4.6,3.2,4.9,7.8,4.8,12.9c-0.2,12.8-0.1,25.5-0.1,38.3c0,1.9,0.1,3.4,2.2,4.5
					c2.5,1.3,3.3,3.9,2.4,6.6c-0.8,2.4-2.6,3.9-5.3,3.9c-2.7,0-4.7-1.3-5.5-3.9c-0.9-2.7,0-5.2,2.5-6.5c1.9-1,2.1-2.4,2.1-4.3
					c0-14.1-0.1-28.2,0-42.4c0-2.6-0.6-4.7-2.7-6.4c-1.1-0.9-1.8-2.2-2.8-3.3C540.6,179.6,541.2,179.6,541.8,179.6z"/>
				<path d="M592.7,179.6c0,7.3,0.1,14.6,0.1,21.9c0,33.9,0,67.8,0,101.8c0,2.1,0.2,3.6,2.5,4.6c2.6,1.2,3.6,4.3,2.8,7
					c-0.7,2.6-3.2,4.4-5.9,4.5c-2.8,0-5.3-1.8-6.1-4.6c-0.8-2.6,0.1-5.7,2.7-6.8c2.5-1.1,2.7-2.8,2.7-5.1c0-39.7,0-79.4,0-119
					c0-1.5,0.1-2.9,0.1-4.4C591.9,179.6,592.3,179.6,592.7,179.6z M596.8,313.3c0-2.8-1.8-4.8-4.6-4.8c-2.9,0-4.8,1.8-4.8,4.6
					c0,2.8,1.9,4.9,4.6,4.9C594.6,318.1,596.7,316,596.8,313.3z"/>
				<path d="M356.6,591.2c-0.6,0.1-1.2,0.2-1.8,0.3c2,1.9,4,3.9,6,5.7c4.7,4.3,7.7,8.8,6.6,15.4h1.2c0.1-1.5,0-2.9,0.2-4.4
					c0.5-3.5-0.9-6-3.5-8.4C362.3,596.9,359.4,594.1,356.6,591.2z"/>
				<path d="M333.1,515.8c2.4,1.1,2.6,2.7,2.6,4.8c-0.1,16.1,0,32.2-0.1,48.3c0,2.5,0.7,4.2,2.5,5.9c4,3.9,7.9,7.9,11.8,11.9
					c0.6-0.1,1.1-0.3,1.7-0.4c-4.2-4.2-8.3-8.4-12.5-12.5c-1.5-1.5-2.1-3-2.1-5.1c0.1-16,0.1-32,0-48c0-2.2,0.1-3.8,2.6-4.8
					c2.7-1.1,3.5-4.3,2.7-7c-0.8-2.6-3.2-4.4-5.9-4.4c-2.7,0-5.2,1.8-5.9,4.4C329.6,511.5,330.5,514.6,333.1,515.8z M331.6,510.3
					c0.1-2.6,2.5-4.8,5-4.6c2.6,0.2,4.7,2.5,4.5,5.1c-0.2,2.7-2.4,4.6-5.1,4.5C333.3,515.2,331.5,513.1,331.6,510.3z"/>
				<path d="M363.3,179.6c4.9,3.5,5.7,8.3,5.5,14c-0.4,12.8-0.1,25.5-0.1,38.3c0,1.8,0.3,3,2.1,4c2.5,1.3,3.5,3.6,2.7,6.4
					c-0.8,2.6-2.6,4.1-5.4,4.1c-2.7,0-4.6-1.3-5.5-3.9c-0.9-2.6,0.1-5.3,2.7-6.7c1.7-0.9,2-2.1,2-3.7c0-14.6,0-29.2-0.1-43.9
					c0-1.5-0.9-3.1-1.8-4.3c-1.1-1.6-2.6-2.9-3.9-4.3C362.1,179.6,362.7,179.6,363.3,179.6z"/>
				<path d="M720.3,600.3c-9.1-9-18.2-17.9-27.1-27c-0.9-0.9-1.1-2.7-1.1-4c-0.1-16.4-0.1-32.8,0-49.1c0-1.9-0.3-3.2-2.3-4.1
					c-2.7-1.2-3.8-4.1-3-6.9c0.7-2.7,3.2-4.7,6-4.7c2.7,0,5.2,1.8,6,4.3c0.9,2.9-0.1,6-2.9,7.3c-2,0.9-2.4,2.1-2.4,4.1
					c0.1,16.3,0,32.6,0.1,48.8c0,1.6,0.9,3.6,2,4.8c8.2,8.4,16.5,16.6,24.8,24.9C720.3,599.1,720.3,599.7,720.3,600.3z M697.5,510.7
					c0-2.8-2-4.9-4.7-4.9c-2.6,0-4.7,2.1-4.8,4.8c0,2.8,1.9,4.8,4.7,4.8C695.5,515.4,697.5,513.4,697.5,510.7z"/>
				<path d="M305.2,593.6c0,1.8,0,3.6,0,5.3c0.4-0.1,0.9-0.3,1.3-0.4c0-1.6,0-3.3,0-4.9c0-1.8,0.2-3,2.1-3.9
					c2.5-1.2,3.5-3.9,2.7-6.4c-0.8-2.6-2.6-4-5.3-4.2c-2.7-0.1-4.9,1.5-5.7,4.1c-0.7,2.5,0.2,5.2,2.7,6.4
					C305,590.6,305.2,591.8,305.2,593.6z"/>
				<path d="M305.2,603.1c0,3.1,0,6.3,0.1,9.4h1.2c0-3.3,0-6.6,0.1-9.8C306.1,602.9,305.7,603,305.2,603.1z"/>
				<path d="M660,590c1.4,0.8,1.6,1.8,1.6,3.3c0,6.4,0.1,12.9,0.1,19.3h1.2c0-6.4,0.1-12.9,0-19.3c0-0.8,0.1-1.4,0.3-1.9
					C662.2,590.9,661.1,590.4,660,590z"/>
				<path d="M666.7,588.4c1.3-1.5,1.7-3.4,1-5.3c-0.9-2.6-2.7-4-5.5-4c-2.7,0-4.9,1.7-5.5,4.4c-0.1,0.3-0.1,0.7-0.2,1
					C660,585.7,663.3,587,666.7,588.4z"/>
				<path d="M455.1,179.6c0,14.8,0.1,29.6,0.1,44.4c0,2.5,0,4.6,2.9,5.9c2.3,1.1,2.8,3.7,2,6.1c-0.8,2.5-2.7,3.8-5.3,3.7
					c-2.6-0.1-4.4-1.4-5.2-4c-0.7-2.6-0.1-5,2.2-6.1c2.6-1.2,2.6-2.9,2.6-5.2c0-15,0.1-30,0.1-45
					C454.7,179.6,454.9,179.6,455.1,179.6z"/>
				<path d="M483.2,612.6c0-6.4,0.1-12.9,0-19.3c0-1.2-0.9-2.7-1.9-3.4c-2.4-1.9-3.5-4.3-2.7-6.8c0.9-2.6,2.8-4,5.5-4
					c2.8,0,4.6,1.5,5.4,4.1c0.8,2.6-0.4,4.8-2.9,6.7c-1,0.7-1.9,2.2-1.9,3.4c-0.3,6.4-0.3,12.8-0.4,19.2
					C484,612.6,483.6,612.6,483.2,612.6z"/>
				<path d="M392.5,179.6c0,12.4,0.1,24.7,0.1,37.1c0,2,0.2,3.4,2.3,4.4c2.8,1.3,3.8,4.4,2.9,7.2c-0.8,2.7-3.4,4.4-6.3,4.3
					c-2.8-0.1-5-2-5.7-4.6c-0.7-2.8,0.4-5.7,3.3-7c2-0.9,2.1-2.2,2.1-3.9c0-12.5,0.1-24.9,0.1-37.4
					C391.7,179.6,392.1,179.6,392.5,179.6z M392,221.6c-2.8,0-4.8,2-4.8,4.8c0,2.7,1.9,4.6,4.5,4.7c2.8,0.1,4.9-1.9,4.9-4.6
					C396.7,223.7,394.7,221.7,392,221.6z"/>
				<path d="M570.4,179.6c0.1,1.5,0.2,3.1,0.3,4.6c0,11,0,22,0,33c0,1.7,0.3,2.8,2.1,3.6c2.9,1.3,4.1,4.2,3.3,7
					c-0.7,2.8-3.1,4.7-6,4.7c-2.8,0-5.4-1.9-6.1-4.6c-0.8-2.8,0.3-5.7,3.2-7.1c1.5-0.8,2.1-1.7,2.1-3.4c-0.1-12.7-0.1-25.3-0.1-38
					C569.7,179.6,570,179.6,570.4,179.6z M570.1,221.6c-2.7,0-4.8,2-4.8,4.7c0,2.7,2,4.7,4.8,4.8c2.7,0,4.9-2,4.9-4.7
					C575,223.7,572.9,221.7,570.1,221.6z"/>
				<path d="M468,179.6c0,9.4,0,18.9,0,28.3c0,1.8,0.4,3,2.2,3.9c2.8,1.4,3.9,4.3,2.9,7.2c-0.9,2.7-2.9,4.1-5.7,4.2
					c-2.6,0.1-5.1-2-5.8-4.5c-0.7-2.8,0.3-5.6,3-6.9c1.8-0.9,2.2-2.1,2.2-3.9c-0.1-9.4,0-18.9,0-28.3
					C467.2,179.6,467.6,179.6,468,179.6z M472.5,217.2c0-2.7-2.3-5-5.1-4.9c-2.7,0-5,2.3-5,5c0.1,2.6,2.3,4.8,4.9,4.8
					C470,222.2,472.5,219.9,472.5,217.2z"/>
				<path d="M560,373.9c5.3-5.2,9.9-9.7,14.4-14.4c0.6-0.6,0.7-2,0.7-3c0-22.9,0-45.8,0-68.7c0-1.7-0.5-2.9-2.1-3.7
					c-2.5-1.3-3.3-3.6-2.5-6.2c0.7-2.5,2.5-3.9,5.2-4c2.5-0.1,4.3,1.1,5.2,3.4c1.1,2.7,0.3,5.1-2,6.4c-2.4,1.4-2.7,3.2-2.7,5.5
					c0.1,22.2,0,44.5,0.1,66.7c0,2.6-0.7,4.4-2.6,6.2c-4,3.8-8,7.7-11.8,11.8c-1.1,1.2-1.9,3.2-2,4.8c-0.2,8.1-0.2,16.2,0,24.3
					c0,1.7,0.9,3.8,2.1,5.1c6.3,6.6,13,13,19.3,19.5c1.7,1.8,2.9,2.1,4.7,0.1c5.1-5.4,10.5-10.5,15.6-15.8c0.9-0.9,1.6-2.5,1.6-3.8
					c0.1-10.8,0.1-21.6,0.1-32.5c0-1.7-0.5-2.6-2.1-3.4c-2.9-1.5-4.1-4.2-3.4-7c0.7-2.7,3.2-4.7,6-4.8c2.8,0,5.3,1.8,6.1,4.6
					c0.8,3-0.3,5.7-3.4,7.3c-1.9,0.9-1.8,2.3-1.8,3.8c0,10.4-0.1,20.9,0,31.3c0,2.4-0.6,4.2-2.4,5.9c-5.1,4.9-10.1,10-15.1,15.1
					c-0.7,0.7-1.4,1.5-2.8,3c2.8,2.5,5.6,4.8,8,7.4c1.2,1.3,2.2,3.3,2.2,5c0.1,21.2,0.1,42.3,0.1,63.5c0,0.9-0.1,1.8-0.2,2.7
					c-0.3,0-0.6,0-0.9,0c0-1.1,0-2.2,0-3.3c0-20.6,0-41.2,0-61.7c0-2.5-0.6-4.4-2.5-6.2c-2.3-2.2-4.4-4.7-6.7-7.3
					c-1.2,1.1-1.9,1.6-2.6,2.3c-6.3,6.4-12.7,12.7-18.9,19.1c-1,1.1-1.8,2.8-1.8,4.3c-0.1,29.9-0.1,59.9-0.1,89.8
					c0,1.8,0.5,2.8,2.1,3.7c2.5,1.3,3.5,3.6,2.7,6.4c-0.7,2.7-2.6,4.1-5.4,4.1c-2.8,0.1-4.6-1.3-5.5-3.9c-0.8-2.5,0-5.3,2.5-6.5
					c2.2-1,2.2-2.6,2.2-4.5c0-29.5,0-59.1-0.1-88.6c0-2.6,0.7-4.6,2.6-6.4c6-5.8,11.9-11.8,17.9-17.7c2.9-2.9,2.9-2.9,0.1-5.7
					c-6.2-6.2-12.4-12.5-18.6-18.6c-1.8-1.8-2.6-3.6-2.6-6.2c0.1-8.5,0.1-16.9,0.1-26.3c-1.8,1.7-3,3.1-4.4,4.1
					c-7.1,5.1-8.9,11.8-8.6,20.4c0.6,20.9,0.2,41.9,0.2,62.9c0,2.1,0.2,3.6,2.5,4.7c2.5,1.1,3.5,4.2,2.7,6.8
					c-0.8,2.7-2.8,4.2-5.6,4.4c-2.8,0.2-5.1-1.5-6-4.2c-0.9-2.7-0.1-5.6,2.5-6.8c2.6-1.2,2.8-3,2.8-5.4c0-23.7,0-47.4-0.1-71.1
					c0-2.5,0.6-4.4,2.5-6.2c3.4-3.1,6.6-6.4,9.7-9.7c0.9-1,1.7-2.7,1.7-4.1c0.2-6.8,0.1-13.7,0.1-20.5c0-1.6-0.4-2.7-2.1-3.4
					c-3-1.4-4.2-4.1-3.4-6.9c0.7-2.6,3.1-4.6,5.7-4.6c2.8,0,5.3,1.9,6,4.7c0.7,2.6-0.6,5.2-3.2,6.9c-0.9,0.6-2.1,1.7-2.1,2.6
					C560,358.5,560,365.7,560,373.9z M564.5,343.2c-0.1-2.7-2.5-5-5.1-4.9c-2.8,0.1-4.9,2.3-4.8,5.2c0.1,2.9,2.3,4.8,5.2,4.7
					C562.6,348,564.6,345.9,564.5,343.2z M550.6,473.9c0-2.8-2.2-4.8-5.2-4.7c-2.8,0.1-4.8,2.2-4.7,4.9c0.1,2.8,2.4,5.1,5,5
					C548.5,478.9,550.6,476.7,550.6,473.9z M604.1,371.4c2.6,0,4.9-2.1,4.9-4.8c0-2.7-2.1-4.9-4.7-4.9c-2.6,0-4.9,2.1-4.9,4.7
					C599.3,369.1,601.5,371.3,604.1,371.4z"/>
				<path d="M382,373.8c5.3-5.2,9.9-9.8,14.5-14.4c0.6-0.6,0.7-2,0.7-3c0-22.8,0-45.6,0.1-68.5c0-1.8-0.5-3-2.2-4
					c-2.3-1.3-3.4-3.5-2.6-6.2c0.8-2.6,2.6-4,5.4-4c2.6,0,4.3,1.3,5.1,3.7c0.8,2.7,0.2,5.2-2.4,6.6c-2.2,1.1-2.1,2.7-2.1,4.6
					c0,22.2,0,44.5,0.1,66.7c0,2.8-0.8,4.8-2.8,6.7c-4,3.7-7.9,7.6-11.6,11.6c-1.1,1.2-1.9,3-2,4.5c-0.2,8.5-0.1,17,0,25.4
					c0,1.3,0.5,3,1.4,3.9c7,7.2,14.1,14.3,21.3,21.4c0.3,0.3,0.6,0.5,1.1,0.8c0.6-0.5,1.2-0.9,1.8-1.4c5.3-5.3,10.7-10.5,15.9-16
					c1-1.1,1.8-2.8,1.8-4.3c0.2-10.7,0.1-21.5,0.1-32.2c0-1.7-0.3-2.8-2.1-3.7c-2.9-1.4-4-4.2-3.2-7.1c0.7-2.7,3.2-4.6,6-4.6
					c2.8,0,5.3,2,6,4.7c0.7,2.8-0.4,5.7-3.3,7.1c-1.7,0.8-2.1,1.9-2.1,3.6c0.1,10.5,0,21.1,0.1,31.6c0,2.5-0.7,4.4-2.5,6.1
					c-5.8,5.6-11.5,11.3-17.6,17.3c2.9,2.9,5.6,5.5,8.1,8.3c0.9,1.1,1.7,2.7,1.7,4.1c0.1,21.5,0.1,43.1,0.1,64.6
					c0,0.7-0.2,1.4-0.9,2.1c-0.1-1.2-0.2-2.4-0.2-3.6c0-20.5-0.1-41,0-61.4c0-2.8-0.7-4.8-2.7-6.7c-2.2-2-4.1-4.4-6.3-6.8
					c-1.2,1-1.9,1.5-2.5,2.1c-6.3,6.3-12.6,12.5-18.8,18.9c-1.1,1.2-2,3.2-2,4.8c-0.1,29.8-0.1,59.7-0.1,89.5c0,2,0.5,3.2,2.3,4.2
					c2.4,1.3,3.2,4.2,2.3,6.6c-0.9,2.4-2.7,3.8-5.4,3.7c-2.7,0-4.7-1.4-5.4-4.1c-0.8-2.6,0-5.1,2.4-6.3c2.2-1.1,2.5-2.6,2.5-4.7
					c0-29.6,0-59.3-0.1-88.9c0-2.5,0.7-4.2,2.5-5.9c6.9-6.7,13.7-13.6,20.8-20.6c-0.9-1-1.6-1.9-2.4-2.7c-6.5-6.6-13.2-13-19.6-19.7
					c-1.1-1.2-1.9-3.2-2-4.8c-0.2-7.6-0.1-15.2-0.1-22.8c0-1,0-2.1,0-3.6c-4.4,4.3-8.4,8-12.3,12c-0.6,0.6-0.5,1.8-0.5,2.8
					c0,24.4,0,48.8,0,73.1c0,1.8,0.5,2.8,2.2,3.6c2.9,1.5,4,4.1,3.2,6.8c-0.7,2.7-3.1,4.6-5.7,4.6c-2.7,0-5.2-1.8-6-4.4
					c-0.8-2.7,0.2-5.6,2.9-6.9c2.2-1.1,2.2-2.6,2.2-4.5c0-23.7,0-47.4-0.1-71.1c0-2.9,0.8-5,2.9-6.9c3.2-3,6.3-6.1,9.3-9.3
					c0.9-1,1.7-2.7,1.8-4c0.2-6.9,0.1-13.8,0.1-20.8c0-1.6-0.5-2.6-2-3.4c-2.9-1.5-4-4.1-3.2-7.1c0.6-2.5,3.2-4.5,5.9-4.5
					c2.5,0,5,1.9,5.7,4.3c0.8,3-0.4,5.6-3.2,7.4c-0.8,0.5-1.8,1.5-1.8,2.2C381.9,358.4,382,365.7,382,373.8z M386.4,343.1
					c0-2.7-2.5-5-5.2-4.9c-2.6,0.1-4.8,2.3-4.9,4.9c0,2.7,2.3,5,5,5C384.1,348.1,386.5,345.8,386.4,343.1z M372.5,473.8
					c-0.1-2.8-2.3-4.8-5.2-4.7c-2.8,0.1-4.7,2.1-4.7,4.9c0,2.8,2.3,5,5,5C370.3,479,372.6,476.5,372.5,473.8z M426,371.4
					c2.6,0,4.9-2.2,4.9-4.8c0-2.6-2.2-4.8-4.9-4.8c-2.7,0-4.8,2.1-4.8,4.8C421.2,369.2,423.3,371.4,426,371.4z"/>
				<path d="M342.4,311.8c3.6-3.7,7.3-7.3,10.8-11c0.6-0.6,0.9-1.7,1-2.6c0.1-9.5,0-18.9,0.1-28.4c0-2.1-1.3-2.5-2.6-3.3
					c-2.8-1.8-3.8-5.1-2.4-7.9c1.3-2.8,4.5-4.2,7.3-3.4c3,0.9,5.2,4,4.4,7c-0.5,1.7-1.8,3.5-3.3,4.5c-1.6,1-2,2-2,3.8
					c0,9.1,0.1,18.1-0.1,27.2c0,1.6-0.9,3.6-2,4.8c-3.3,3.6-6.9,6.9-10.2,10.5c-0.9,1-1.6,2.7-1.7,4.1c-0.2,4.8,0,9.6-0.1,14.3
					c0,1.7,0.4,2.8,2.2,3.6c2.9,1.2,4.2,4.1,3.5,6.9c-0.6,2.7-2.9,4.6-5.7,4.7c-2.7,0.1-5.1-1.6-6-4.3c-0.9-2.7,0-5.4,2.8-7
					c1.6-0.9,2.1-2.1,2-3.8c-0.1-4.9,0-9.7,0-15.1c-1,0.8-1.7,1.1-2.2,1.6c-4.2,4.1-8.4,8.2-12.4,12.5c-1,1-1.7,2.7-1.7,4
					c-0.1,18.2-0.1,36.5-0.1,54.7c0,1.8,0.4,2.8,2.1,3.6c2.8,1.4,3.9,4.3,3.2,7.1c-0.7,2.7-3.3,4.6-6.1,4.6c-2.8,0-5.2-2-6-4.7
					c-0.7-2.7,0.4-5.7,3.1-6.9c2-0.9,2.3-2.2,2.3-4.1c0-17.9,0-35.9-0.1-53.8c0-2.4,0.7-4.2,2.4-5.9c4.6-4.4,9.1-8.9,13.4-13.5
					c1-1.1,1.8-2.8,1.8-4.3c0.1-14.4,0-28.9,0.2-43.3c0-3.2-2.1-4.6-4.1-6.3c-0.3-0.3-1.7,0.1-2.2,0.5c-9.4,9.3-18.7,18.6-27.9,27.9
					c-0.7,0.7-1,2.1-1,3.2c-0.1,8.5-0.1,17,0,25.4c0,1.2,1,2.6,2,3.3c2.6,1.9,3.9,4.3,3.1,7.3c-0.7,2.5-2.9,4.3-5.6,4.3
					c-2.9,0.1-5.2-1.7-5.9-4.3c-0.8-3,0.2-5.6,3.2-7.1c1.7-0.9,2.1-2,2.1-3.7c0-8.4-0.1-16.8,0.1-25.2c0-1.6,0.9-3.6,2-4.8
					c8.7-8.9,17.6-17.7,26.5-26.5c1.7-1.7,1.9-2.8,0.1-4.4c-2.7-2.5-5.4-5.1-7.8-7.9c-1.1-1.3-2-3.2-2-4.8
					c-0.1-15.8-0.1-31.6-0.1-47.4c0-2.2-0.3-3.8-2.6-4.9c-2.6-1.2-3.4-4.3-2.5-7.1c0.7-2.4,3.3-4.2,5.9-4c2.7,0.2,4.6,1.5,5.5,4.1
					c1,2.7,0,5.8-2.6,7.1c-2.2,1-2.6,2.5-2.6,4.6c0.1,15.6,0.1,31.2,0,46.8c0,2.3,0.7,4.1,2.4,5.6c2.6,2.4,5,4.9,7.5,7.4
					c1.2,1.3,2.2,1.6,3.6,0.2c2.8-3,5.8-5.8,8.6-8.8c0.7-0.8,1.3-2,1.3-3.1c0.1-11.3,0-22.6,0.1-33.9c0-1.9-1-2.4-2.4-3.1
					c-2.3-1-3.3-3-3.1-5.5c0.2-2.5,1.7-4.1,4-4.9c2.3-0.7,4.2,0.1,5.7,1.9c1.9,2.2,1.6,6.2-0.9,7.8c-2,1.3-2.3,2.8-2.3,4.9
					c0,10.5,0,21.1,0.1,31.6c0,2.4-0.7,4.3-2.5,5.9c-2.6,2.5-5.1,5.1-7.7,7.6c-1.5,1.4-1.7,2.6,0,3.8c2.7,2,3.3,4.7,3.2,7.9
					c-0.2,13-0.1,25.9-0.1,38.9c0,1,0,2.1,0,3.1C341.9,311.6,342.1,311.7,342.4,311.8z M318.4,187.5c0,2.7,2.4,5,5.1,5
					c2.6,0,4.9-2.2,5-4.8c0.1-2.7-2.2-5.1-4.9-5.1C320.7,182.5,318.4,184.8,318.4,187.5z M304.5,322.5c-2.7,0.1-5,2.5-4.9,5.2
					c0.1,2.8,2.3,4.8,5.2,4.7c2.7-0.1,4.8-2.2,4.7-4.9C309.6,324.8,307.2,322.4,304.5,322.5z M341.8,335.3c-2.5-0.2-5,1.8-5.3,4.4
					c-0.3,2.7,1.7,5.2,4.5,5.5c2.8,0.2,5.1-1.6,5.4-4.2C346.6,338,344.7,335.6,341.8,335.3z M354.9,266c2.6,0,4.8-2.2,4.8-4.8
					c0-2.7-2.1-4.8-4.8-4.8c-2.6,0-4.9,2.2-4.9,4.8C350.1,263.8,352.3,266,354.9,266z M328.2,398.2c0.1-2.8-1.9-4.9-4.6-5
					c-2.7-0.1-4.8,1.9-4.8,4.7c-0.1,2.8,1.8,4.9,4.6,4.9C326,403,328.1,401,328.2,398.2z"/>
				<path d="M633.6,384c3.9-3.7,7.3-6.9,10.7-10.3c0.5-0.5,0.4-1.7,0.4-2.5c0-29.8,0-59.7,0-89.5c0-1.6-0.5-2.6-2-3.5
					c-2.7-1.6-3.6-4-2.7-6.7c0.9-2.6,2.8-4,5.5-4c2.6,0,5,1.9,5.5,4.5c0.6,2.8-0.4,5.2-3,6.3c-2.1,0.9-1.9,2.4-1.9,4.1
					c0,29.2,0,58.3,0.1,87.5c0,3.1-0.8,5.3-3.1,7.4c-3.2,2.9-7.3,5.8-8.9,9.5c-1.6,3.8-0.5,8.6-0.6,13c0,5.2,0,10.3,0,15.5
					c0,1.7,0.3,2.8,2.1,3.7c2.8,1.3,3.9,4.2,3.1,7.1c-0.7,2.5-3.2,4.4-5.9,4.4c-2.5,0-5-1.9-5.6-4.4c-0.8-3,0.4-5.5,3-7.3
					c1-0.6,2.1-1.9,2.1-3c0.2-8.7,0.1-17.4,0.1-26c0-0.4-0.1-0.7-0.3-1.8c-2.8,2.7-4.9,5.5-7.7,7.5c-6.1,4.6-8,10.4-7.5,17.9
					c0.6,10.4,0.2,20.9,0.1,31.3c0,1.9,0.4,3.2,2.3,4.3c2.4,1.3,3.2,3.7,2.4,6.3c-0.8,2.6-2.6,4.1-5.4,4.1c-2.6,0-4.6-1.2-5.4-3.7
					c-0.9-2.7-0.3-5.2,2.2-6.6c2.1-1.2,2.4-2.7,2.4-4.8c0-12.9-0.1-25.7,0.1-38.6c0-1.7,0.9-3.8,2.1-5.1c4.2-4.5,8.7-8.7,12.9-13.2
					c1-1.1,1.5-2.8,1.8-4.3c1.5-8.6-1-15.6-8.3-21c-3.9-2.9-7-7-10.7-10.4c-2-1.9-2.8-3.9-2.8-6.7c0.1-42.7,0.1-85.4,0.1-128.1
					c0-5.4-0.1-10.7,0-16.1c0-1.8-0.4-3-2.2-3.9c-2.8-1.3-3.9-4.1-3.1-6.8c0.7-2.7,2.9-4.5,5.7-4.6c2.6-0.1,5.2,1.8,5.9,4.4
					c0.8,2.7-0.3,5.6-2.9,6.9c-2,1-2.3,2.3-2.3,4.2c0,48.3,0,96.5,0.1,144.8c0,1.6,0.9,3.6,2,4.8c5.7,5.9,11.5,11.7,17.3,17.4
					c1.7,1.6,2.4,3.4,2.3,5.7C633.5,377.1,633.6,380.3,633.6,384z M638.1,424.3c0-2.7-2.4-4.9-5.2-4.9c-2.8,0.1-5,2.4-4.9,5.2
					c0.1,2.6,2.4,4.8,5,4.8C635.8,429.4,638.1,427,638.1,424.3z M611.2,196.5c3,0,5-1.9,4.9-4.9c0-2.8-2.2-5-5-4.9
					c-2.6,0-4.8,2.3-4.9,4.9C606.2,194.4,608.4,196.5,611.2,196.5z"/>
				<path d="M693.1,259c0.2,0.8,0.2,0.9,0.3,1c4.7,3.3,4.7,8.1,4.6,13.2c-0.2,11.7-0.1,23.4-0.1,35.1c0,1,0,2.1,0,3.3
					c4.2-4,8.3-7.7,12.1-11.6c0.6-0.6,0.5-1.8,0.5-2.8c0-9,0-17.9,0-26.9c0-1.7-0.4-2.8-2.1-3.6c-2.9-1.4-4.1-4.3-3.3-7.1
					c0.7-2.8,3.2-4.7,6-4.7c2.7,0,5.1,1.7,6,4.3c0.9,2.8-0.1,5.8-2.9,7.2c-1.9,1-2.3,2.3-2.3,4.2c0.1,8.8-0.1,17.6,0.1,26.3
					c0,2.5-0.7,4.2-2.5,5.9c-3.4,3.1-6.6,6.3-9.7,9.7c-1,1.1-1.7,2.8-1.8,4.3c-0.2,4.4,0,8.8-0.1,13.2c-0.1,2.3,0.3,3.9,2.8,5
					c2.7,1.1,3.7,4.3,2.8,7c-0.9,2.7-3.6,4.5-6.3,4.3c-2.7-0.2-5.1-2.5-5.5-5.3c-0.3-2.6,0.7-4.7,2.9-5.9c1.8-0.9,2.2-2.2,2.2-4
					c-0.1-4.8,0-9.7,0-14.5c-0.2-0.1-0.5-0.2-0.7-0.3c-1.8,1.8-3.7,3.6-5.5,5.4c-3.3,3.4-7.9,6.3-9.6,10.5c-1.7,4-0.5,9.2-0.5,13.9
					c0,14,0,28.1,0,42.1c0,2.1,0.3,3.6,2.5,4.6c2.6,1.2,3.6,4.3,2.8,7c-0.7,2.6-3.2,4.4-5.9,4.4c-2.8,0-5.3-1.8-6.1-4.6
					c-0.8-2.6,0.1-5.6,2.7-6.8c2.5-1.1,2.7-2.9,2.7-5.1c-0.1-17.6,0-35.3-0.1-52.9c0-2.6,0.7-4.4,2.6-6.1c4.4-4.2,8.7-8.7,13.1-13
					c1.5-1.5,2.2-3,2.2-5.1c-0.1-13.7-0.2-27.3,0.1-41c0.1-4.3-1.8-6.7-5-9.1c-0.8,0.7-1.5,1.3-2.2,1.9
					c-8.6,8.6-17.2,17.3-25.9,25.8c-1.6,1.6-2.3,3.2-2.3,5.4c0.1,8.2,0.1,16.4,0,24.6c0,1.8,0.4,3,2.2,3.9c2.7,1.3,3.8,4.2,3,6.9
					c-0.7,2.6-3.2,4.4-6,4.3c-2.7-0.1-5.1-1.9-5.8-4.5c-0.7-2.6,0.5-5.6,3.2-6.8c1.9-0.8,2.2-2.1,2.2-3.9c0-8.2,0.1-16.4-0.1-24.6
					c0-2.3,0.7-4,2.4-5.6c8.8-8.6,17.4-17.4,26.1-26c1.8-1.7,2.1-2.9,0.1-4.6c-2.6-2.3-4.9-5-7.5-7.4c-1.7-1.6-2.4-3.3-2.3-5.7
					c0.1-15.5,0-31,0.1-46.5c0-2.4-0.1-4.2-2.8-5.4c-2.5-1.1-3.3-3.8-2.6-6.5c0.7-2.7,3.1-4.6,5.8-4.5c2.7,0,4.7,1.3,5.6,3.9
					c1,2.6,0.4,5.7-2.1,7c-2.8,1.4-3,3.4-2.9,5.9c0.1,15.1,0.1,30.2,0,45.3c0,2.7,0.7,4.6,2.7,6.4c2.5,2.3,4.9,4.8,7.3,7.2
					c1.1,1.2,2.1,1.5,3.4,0.2c2.9-3,6-5.9,8.8-9c0.7-0.8,1.2-2.1,1.2-3.1c0.1-11.2,0.1-22.4,0-33.6c0-1-1-2.4-2-3
					c-2.5-1.4-3.9-3.3-3.5-6.1c0.4-2.5,2.2-4.2,4.7-4.6c2.6-0.4,4.7,0.7,5.7,3.1c1.1,2.6,0.7,5.1-1.7,6.8c-1.7,1.2-2.1,2.6-2.1,4.5
					c0,10.6,0,21.3,0.1,31.9c0,2.3-0.6,4.1-2.3,5.7C699.3,252.8,696.2,256,693.1,259z M665.9,327.6c0-2.9-2.1-5.1-4.8-5.1
					c-2.6,0-4.9,2.2-5,4.7c-0.1,2.9,2.1,5.2,5.1,5.2C663.9,332.3,665.9,330.4,665.9,327.6z M702.7,340.2c0-2.7-2.5-5-5.1-4.9
					c-2.5,0.1-4.8,2.4-4.8,5c0,2.8,2.1,4.9,5,4.9C700.7,345.2,702.8,343.1,702.7,340.2z M679.9,182.5c-2.7-0.1-5.1,2.2-5.2,4.9
					c0,2.6,2.3,5,5,5c2.7,0,4.8-2,4.9-4.7C684.8,184.8,682.7,182.6,679.9,182.5z M679.9,402.9c2.7-0.1,4.7-2.3,4.6-5
					c-0.1-2.7-2.2-4.8-4.9-4.7c-2.6,0.1-4.8,2.4-4.7,5C675,400.8,677.3,403,679.9,402.9z M716.1,261.2c0.1-2.6-2.1-4.8-4.8-4.9
					c-2.6,0-4.9,2.1-4.9,4.8c0,2.6,2.2,4.9,4.8,4.9C713.8,266,716,263.8,716.1,261.2z"/>
				<path d="M454,388.2c-4.9,4.9-9.6,9.4-14.1,14.1c-0.7,0.7-1,2.1-1,3.2c-0.1,13.3,0,26.5-0.1,39.8c0,1.6,0.3,2.7,1.9,3.5
					c2.7,1.4,3.7,4.1,2.9,6.6c-0.9,2.6-2.7,4.1-5.4,4.1c-2.7,0-4.6-1.4-5.5-4c-0.9-2.6,0.1-5.2,2.8-6.6c1.8-0.9,1.9-2.2,1.9-3.8
					c0-13.1,0-26.1-0.1-39.2c0-2.2,0.6-3.9,2.2-5.4c4.4-4.2,8.8-8.6,13-13.1c1-1,1.2-2.7,1.8-4c0-0.1,0-0.2,0-0.3
					c1.4-8.5-1.2-15.2-8.2-20.5c-4-3.1-7.1-7.2-10.9-10.6c-2.2-2-3-4.2-3-7.2c0.1-47.3,0-94.6,0.1-141.9c0-2.8,0-5.1-3.1-6.7
					c-3-1.6-3-6.2-0.6-8.7c2.5-2.6,6.4-2.6,8.8,0c2.5,2.7,2.3,7.2-1,8.9c-2.8,1.5-3.1,3.4-3.1,6.1c0.1,47.3,0.1,94.6,0,141.9
					c0,2.8,0.7,4.9,2.8,6.9c5.1,4.8,9.8,10,15,14.8c3,2.7,4.5,5.6,4,9.7c-0.3,2.6-0.1,5.2-0.1,7.8c0.2,0.1,0.5,0.3,0.7,0.4
					c1.3-1.3,2.5-2.8,4-3.8c5.6-4,6.9-9.3,6.8-16.1c-0.4-27.2-0.2-54.4-0.1-81.6c0-2-0.1-3.4-2.3-4.5c-2.5-1.2-3.3-3.6-2.6-6.2
					c0.7-2.5,2.4-4,5-4.2c2.7-0.2,4.8,1,5.8,3.6c1,2.6,0.5,5.1-1.8,6.5c-2.5,1.4-2.8,3.3-2.7,5.8c0.1,29,0,57.9,0.1,86.9
					c0,2.8-0.7,4.8-2.8,6.6c-2.8,2.5-5.4,5.1-7.8,7.9c-1.1,1.4-2,3.4-2.1,5.1c-0.2,8.4-0.1,16.8-0.1,25.2c0,1.8,0.3,3,2.2,3.9
					c2.9,1.4,4,4.1,3.3,6.8c-0.7,2.8-3.2,4.8-5.9,4.7c-2.7,0-5.2-2.1-5.9-4.9c-0.7-2.7,0.6-5,3.4-6.8c0.9-0.6,2-1.8,2-2.7
					c0.1-8.9,0.1-17.7,0.1-26.6C454.4,389.2,454.2,389,454,388.2z M455,429.4c2.7-0.1,5-2.4,4.9-5.2c-0.1-2.8-2.3-4.9-5.2-4.7
					c-2.8,0.1-4.8,2.2-4.7,4.9C450,427.2,452.2,429.4,455,429.4z M438.1,191.9c0.1-2.7-2.2-5.1-4.9-5.2c-2.7-0.1-5,2.2-5,4.9
					c0,2.8,1.9,4.8,4.7,4.9C435.8,196.7,438,194.7,438.1,191.9z"/>
				<path d="M513.2,259.3c-2.9-2.8-5.4-5.5-8.3-7.9c-2.8-2.4-3.8-5.1-3.8-8.9c0.2-15,0.1-30,0.1-45c0-2.2-0.2-3.8-2.6-4.9
					c-2.7-1.3-3.7-4.3-2.9-7c0.8-2.5,3.4-4.4,6-4.3c2.7,0.1,5,2,5.7,4.7c0.7,2.7-0.4,5.5-3.3,6.8c-1.9,0.9-2.2,2.1-2.2,3.9
					c0,15.9,0,31.8,0.1,47.7c0,1.5,0.9,3.4,1.9,4.6c2.3,2.7,5.1,5.1,7.6,7.7c1.7,1.9,3,1.8,4.4-0.1c0.1-0.1,0.1-0.1,0.2-0.2
					c7.7-5.4,10.4-12.7,9.4-22.1c-0.8-7.3-0.2-14.8-0.1-22.2c0-1.8-0.4-3-2.3-3.9c-2.6-1.1-3.7-3.8-3-6.3c0.7-2.6,2.6-3.9,5.1-4.1
					c2.6-0.1,4.5,1.2,5.4,3.7c0.9,2.6,0.3,5-2.1,6.4c-1.9,1.1-2.1,2.5-2.1,4.4c0,10.4-0.1,20.9,0.1,31.3c0,3-0.8,5.2-3,7.1
					c-2.6,2.3-5,5-7.5,7.4c-1.2,1.1-1.3,2.2,0,3.1c3.4,2.3,3.5,5.6,3.5,9.3c-0.1,12.7-0.1,25.4-0.1,38c0,1,0,2,0,3.7
					c4.4-4.3,8.3-8.1,12.1-11.9c0.5-0.5,0.6-1.6,0.6-2.5c0-9.3,0-18.5,0.1-27.8c0-1.7-0.5-2.6-2.1-3.4c-2.8-1.4-3.9-4.2-3.2-7.1
					c0.7-2.7,3.2-4.6,6-4.6c2.8,0,5.3,1.9,6,4.7c0.7,2.8-0.5,5.7-3.3,7c-1.8,0.8-2.1,1.9-2.1,3.6c0.1,5.4,0.1,10.7,0,16.1
					c0,4.7,1.1,9.8-0.6,13.9c-1.6,3.9-6,6.7-9.2,10c-0.9,0.9-2,1.7-2.6,2.7c-0.7,1.2-1.5,2.5-1.6,3.8c-0.2,4.9,0,9.7-0.1,14.6
					c0,1.7,0.5,2.6,2.2,3.3c3,1.2,4.3,3.7,3.8,6.5c-0.5,2.9-2.7,4.9-5.6,5.1c-2.7,0.2-5.4-1.5-6.1-4c-0.9-2.8,0.1-5.7,2.9-7.3
					c1.7-0.9,2.1-2,2.1-3.7c-0.1-4.9,0-9.8,0-14.8c-0.3-0.1-0.5-0.2-0.8-0.3c-1.8,1.8-3.7,3.6-5.5,5.5c-1.5,1.4-2.7,3.1-4.4,4.3
					c-5,3.6-6,8.4-6,14.2c0.3,16.2,0.1,32.4,0.1,48.6c0,1.8,0.3,3,2.2,3.9c2.9,1.3,4,4.3,3.2,7.1c-0.8,2.7-3.3,4.6-6.1,4.6
					c-2.7,0-5.1-1.8-5.9-4.5c-0.9-2.9,0.2-5.8,3-7.2c2-1,2.2-2.4,2.2-4.2c0-17.8,0-35.7-0.1-53.5c0-2.5,0.7-4.4,2.6-6.2
					c4.4-4.2,8.5-8.6,12.9-12.8c1.8-1.7,2.6-3.6,2.6-6.1c-0.1-13.5-0.2-26.9,0.1-40.4c0.1-4.3-1.9-6.6-5.1-8.9
					c-0.8,0.7-1.5,1.3-2.2,2c-8.7,8.7-17.4,17.3-26,26.1c-1.2,1.2-2.1,3.3-2.2,5c-0.2,8.1-0.1,16.2-0.1,24.3c0,1.9,0.4,3.2,2.4,4.1
					c2.6,1.2,3.7,4,3.1,6.6c-0.7,2.8-3.1,4.7-5.9,4.7c-2.9,0-5-1.6-5.8-4.4c-0.7-2.7,0.2-5.5,2.8-6.7c2.1-1,2.4-2.4,2.4-4.4
					c-0.1-7.8,0.1-15.6-0.1-23.4c-0.1-2.8,0.8-4.9,2.8-7c8.6-8.4,17-16.9,25.5-25.4C511.2,261.4,511.9,260.7,513.2,259.3z
					 M501.6,182.5c-2.8,0-4.9,2.2-4.9,5.1c0.1,2.9,2.2,4.9,5.1,4.8c2.6-0.1,4.8-2.3,4.8-4.9C506.6,184.7,504.3,182.5,501.6,182.5z
					 M524.6,340.2c-0.1-2.7-2.5-5-5.2-4.9c-2.7,0.1-4.9,2.5-4.8,5.2c0.1,2.7,2.2,4.7,5,4.7C522.5,345.2,524.7,343,524.6,340.2z
					 M482.9,322.5c-2.7,0-5,2.3-5,5.1c0,2.8,2.2,5,5,4.9c2.7-0.1,4.8-2.2,4.8-4.9C487.9,324.9,485.6,322.5,482.9,322.5z
					 M537.9,261.2c0.1-2.6-2.1-4.8-4.8-4.8c-2.7,0-4.8,2-4.8,4.8c0,2.7,2.1,4.9,4.7,4.9C535.7,266,537.9,263.8,537.9,261.2z
					 M501.6,402.9c2.6,0,4.9-2.2,4.9-4.8c0-2.6-2.2-4.9-4.8-4.9c-2.6,0-4.8,2.2-4.9,4.8C496.8,400.7,499,402.9,501.6,402.9z"/>
				<path d="M512.8,416.5c2.3,0.2,4.3,1.5,5,4.2c0.7,2.6,0,5.1-2.4,6.3c-2.1,1.1-2.3,2.5-2.3,4.5c0.1,9.8,0.1,19.5,0,29.3
					c0,2.1,0.6,3.7,2.1,5.2c7.3,7.2,14.5,14.5,21.8,21.7c1.8,1.7,2.5,3.5,2.4,5.9c-0.1,24.2,0,48.4-0.1,72.5c0,2.3,0,4.2,2.7,5.4
					c2.6,1.2,3.4,4.5,2.4,7.1c-0.9,2.5-3.4,4.3-6.1,4.2c-2.7-0.1-5.1-2-5.8-4.6c-0.7-2.6,0.2-5.7,2.7-6.8c2.4-1.1,2.6-2.7,2.6-4.9
					c0-24.2-0.1-48.4,0-72.5c0-2.6-0.8-4.4-2.6-6.1c-7.1-6.9-14.1-14.1-21.2-21c-1.8-1.7-2.4-3.5-2.4-5.9c0.1-9.8,0-19.7,0.1-29.5
					c0-1.9-0.3-3.2-2.3-4.2c-2.5-1.2-3.3-4.1-2.6-6.5C507.6,418.1,509.9,416.4,512.8,416.5z M538.7,571.6c-2.7-0.1-4.9,2-5,4.6
					c-0.1,2.6,2.1,4.9,4.7,5c2.6,0.1,4.9-2.1,5-4.7C543.5,573.8,541.5,571.7,538.7,571.6z"/>
				<path d="M354.2,575.6c0.1-1.9,1.4-3.6,3.6-4.9c0.9-0.5,1.8-1.9,1.8-2.8c0.1-25.2,0.1-50.3,0-75.5c0-1.3-0.9-2.8-1.8-3.7
					c-7.2-7.4-14.5-14.7-21.9-21.9c-1.7-1.7-2.5-3.4-2.5-5.9c0.1-9.9,0-19.9,0.1-29.8c0-1.8-0.4-3-2.2-4c-2.5-1.3-3.4-4-2.5-6.5
					c0.9-2.6,2.8-4,5.5-4c2.8,0,4.6,1.5,5.4,4.1c0.8,2.8-0.1,5.2-2.7,6.4c-1.8,0.9-2.2,2.1-2.2,3.9c0.1,10,0,20.1,0.1,30.1
					c0,1.5,0.8,3.2,1.8,4.3c7.1,7.3,14.2,14.5,21.5,21.5c2.2,2.1,2.9,4.2,2.9,7.2c-0.1,24.1,0,48.2-0.1,72.3c0,2.2,0.3,3.7,2.6,4.8
					c2.8,1.4,3.7,4.8,2.5,7.6c-1.2,2.7-4.1,4.3-6.9,3.8C356.2,581.9,354.2,579.4,354.2,575.6z M360.3,581.3c2.5,0.1,4.9-2.2,4.9-4.8
					c0-2.6-2.2-4.8-4.8-4.9c-2.8,0-4.8,1.9-4.8,4.7C355.6,579,357.7,581.2,360.3,581.3z"/>
				<path d="M349.5,445.8c-2.7,0-5.1-1.8-5.9-4.5c-0.8-2.7,0.1-5.7,2.8-7c2.4-1.1,2.6-2.7,2.6-4.9c-0.1-23.8,0-47.6-0.1-71.3
					c0-2.2,0.6-3.8,2.2-5.4c4.6-4.5,9.2-9,13.6-13.7c1.1-1.2,2-3.2,2-4.8c0.2-10.4,0.1-20.9,0.1-31.3c0-1.9-0.4-3.2-2.3-4.2
					c-2.7-1.3-3.7-4.3-2.9-7c0.8-2.7,3.3-4.6,6.1-4.6c2.7,0,5.3,2.1,6,4.7c0.7,2.7-0.5,5.6-3.1,6.9c-1.8,0.9-2.2,2.1-2.2,3.9
					c0,10.2-0.1,20.5,0.1,30.7c0,2.9-0.8,4.9-2.9,6.9c-4.6,4.3-9.1,8.8-13.4,13.4c-1,1-1.7,2.7-1.7,4.1c-0.1,24.2-0.1,48.3-0.1,72.5
					c0,1.9,0.7,2.9,2.4,3.8c2.6,1.4,3.7,4.3,2.9,7C354.8,444,352.3,445.9,349.5,445.8z M354.4,439.5c0-2.7-2.1-4.8-4.8-4.7
					c-2.7,0.1-4.8,2.2-4.8,4.9c0,2.6,2.3,4.8,4.9,4.8C352.3,444.4,354.4,442.2,354.4,439.5z M372.5,293.7c0.1-2.6-2-4.9-4.7-5
					c-2.6-0.1-4.9,2.1-5,4.7c-0.1,2.7,2,4.9,4.7,4.9C370.2,298.4,372.4,296.4,372.5,293.7z"/>
				<path d="M521,439.2c1.2-1.7,2-3.9,3.7-4.8c2.1-1.2,2.5-2.6,2.4-4.7c0-23.6,0-47.2-0.1-70.8c0-2.8,0.8-4.8,2.8-6.6
					c4.5-4.3,9-8.7,13.2-13.3c1.1-1.2,2-3.2,2-4.8c0.2-10.5,0.1-21.1,0.1-31.6c0-1.7-0.3-2.8-2.1-3.6c-2.9-1.4-4-4.2-3.3-7
					c0.7-2.8,3.1-4.7,6-4.7c2.8,0,5.3,1.9,6,4.6c0.8,2.9-0.4,5.7-3.2,7.1c-1.8,0.8-2.1,1.9-2.1,3.6c0.1,10.6,0,21.2,0.1,31.9
					c0,2.2-0.7,3.8-2.3,5.4c-4.7,4.5-9.3,9.1-13.8,13.9c-1.1,1.1-1.9,3-1.9,4.5c-0.1,24-0.1,48-0.1,71.9c0,2,0.6,3.1,2.5,4
					c2.8,1.4,3.8,4.7,2.7,7.5c-1.1,2.7-4,4.4-6.8,3.9C523.7,445.2,521.6,442.8,521,439.2z M532.7,439.6c0-2.6-2.2-4.8-4.9-4.8
					c-2.7,0-4.8,2.1-4.8,4.8c0,2.7,2.1,4.8,4.8,4.8C530.5,444.4,532.6,442.3,532.7,439.6z M550.6,293.5c0-2.7-2.1-4.9-4.7-4.9
					c-2.6,0-4.8,2.2-4.9,4.8c0,2.7,2.1,4.8,4.8,4.8C548.6,298.3,550.6,296.3,550.6,293.5z"/>
			</g>
		</g>
		
			<linearGradient id="SVGID_00000164513754218342017170000010117704196730235525_" gradientUnits="userSpaceOnUse" x1="410.6961" y1="410.4727" x2="410.9948" y2="410.4727">
			<stop  offset="0" style="stop-color:#3256AA"/>
			<stop  offset="1" style="stop-color:#2D8FD0"/>
		</linearGradient>
		<path style="fill:url(#SVGID_00000164513754218342017170000010117704196730235525_);" d="M412.5,242.9
			c-26.8,11.3-50.8,27.5-71.5,48.2c-20.7,20.7-36.9,44.7-48.2,71.5c-11.7,27.7-17.7,57.2-17.7,87.6c0,26.6,4.6,52.6,13.7,77.3
			c8.7,23.7,21.2,45.7,37.3,65.3c0.5-0.1,0.9-0.3,1.4-0.4l5.9-4.9c-31.8-38.5-49.3-87.3-49.3-137.4c0-105.3,75.7-193.2,175.6-212.2
			c1.4-3.5,2.8-6.8,4.3-9.9C446.4,231,429.2,235.9,412.5,242.9z"/>
		
			<linearGradient id="SVGID_00000051348474667908448950000007864160106999744918_" gradientUnits="userSpaceOnUse" x1="410.6961" y1="410.0565" x2="410.9948" y2="410.0565">
			<stop  offset="0" style="stop-color:#3256AA"/>
			<stop  offset="1" style="stop-color:#2D8FD0"/>
		</linearGradient>
		<path style="fill:url(#SVGID_00000051348474667908448950000007864160106999744918_);" d="M716.1,450.2c0,50.4-17.7,99.4-49.9,138
			c2.9,1.2,5.7,2.5,8.5,3.8c15.4-19,27.6-40.2,36.1-63c9.4-25.2,14.2-51.6,14.2-78.7c0-30.4-5.9-59.8-17.7-87.6
			c-11.3-26.8-27.5-50.8-48.2-71.5c-20.7-20.7-44.7-36.9-71.5-48.2c-16.6-7-33.8-12-51.5-14.8c1.5,3.1,3,6.4,4.3,9.9
			C640.4,257,716.1,344.9,716.1,450.2z"/>
		<path d="M452.3,356.4c0,0-35.8,17.9-11.4,78.9c0,0,6.1-31.7,23.9-39.4L452.3,356.4z"/>
		<path d="M548.9,356.4c0,0,35.8,17.9,11.4,78.9c0,0-6.1-31.7-23.9-39.4L548.9,356.4z"/>
		<path d="M478,413.3c0,0-2.4,10.6,12.5,10v-8.6L478,413.3z"/>
		<path d="M523.7,413.3c0,0,2.4,10.6-12.5,10v-8.6L523.7,413.3z"/>
		<circle class="st5" cx="500.1" cy="268.6" r="18.2"/>
		<g>
			<path class="st5" d="M500.1,292.8c-13.3,0-24.2-10.9-24.2-24.2s10.9-24.2,24.2-24.2s24.2,10.9,24.2,24.2S513.4,292.8,500.1,292.8
				z M500.1,248.6c-11,0-20,9-20,20s9,20,20,20s20-9,20-20S511.1,248.6,500.1,248.6z"/>
		</g>
		<path d="M500.1,193.3c-4.5,3.3-14.3,11.8-23,26.3c10.5-0.9,27.7-1.8,46-0.1C514.4,205,504.6,196.6,500.1,193.3z"/>
		
			<linearGradient id="SVGID_00000087383476564272340910000017753924556334511276_" gradientUnits="userSpaceOnUse" x1="410.6961" y1="203.7251" x2="410.9948" y2="203.7251">
			<stop  offset="0" style="stop-color:#3256AA"/>
			<stop  offset="1" style="stop-color:#2D8FD0"/>
		</linearGradient>
		<path style="fill:url(#SVGID_00000087383476564272340910000017753924556334511276_);" d="M467.1,222.2c1.8-0.2,4.1-0.4,6.6-0.7
			c10-16.7,21.3-26.3,26.4-30.2c5.1,3.8,16.3,13.3,26.3,30c2.2,0.2,4.4,0.4,6.6,0.7c1.9,0.2,3.7,0.5,5.6,0.8l-0.7,4.7
			c1.5,0.3,3,0.7,4.5,1.2c-0.5-1-1-2.1-1.5-3.1c-15.5-31.7-37.2-44.9-38.1-45.5l-2.8-1.7l-2.8,1.7c-0.9,0.5-22.6,13.8-38.1,45.5
			c-0.4,0.8-0.8,1.7-1.2,2.6c1.4-0.2,2.8-0.5,4.2-0.8l-0.7-4.5C461.6,223,463.6,222.6,467.1,222.2z"/>
		
			<linearGradient id="SVGID_00000005966232241218766250000015471271426520534694_" gradientUnits="userSpaceOnUse" x1="496.5276" y1="201.9356" x2="500.3685" y2="224.7249">
			<stop  offset="0" style="stop-color:#3256AA"/>
			<stop  offset="1" style="stop-color:#2D8FD0"/>
		</linearGradient>
		<path style="fill:url(#SVGID_00000005966232241218766250000015471271426520534694_);" d="M538.6,223c-1.9-0.3-3.7-0.5-5.6-0.8
			c-2.2-0.3-4.4-0.5-6.6-0.7c-21-2-40.6-1-52.7,0.1c-2.6,0.2-4.8,0.5-6.6,0.7c-3.5,0.4-5.5,0.7-5.6,0.7l0.7,4.5l0,0.3
			c0,0,0.8-0.1,2-0.3c8.1-1.1,39.5-4.6,71.5,0c0.7,0.1,1.4,0.2,2.1,0.3l0-0.1L538.6,223z"/>
		<polygon class="st8" points="393.1,313.7 398.5,303.8 403.9,313.7 413.8,319.1 403.9,324.4 398.5,334.3 393.1,324.4 383.3,319.1 
					"/>
		<polygon class="st8" points="598.1,313.7 603.5,303.8 608.9,313.7 618.7,319.1 608.9,324.4 603.5,334.3 598.1,324.4 588.2,319.1 
					"/>
		<g>
			<path class="st8" d="M497.1,378.1c0.4-0.7,0.9-1.4,1.5-1.9c0.5-0.4,1-0.5,1.5-0.4c1.5,0.2,2.6,2.1,3.3,3.4
				c1.1,2.1,1.7,4.5,2.1,6.9c0.5,3.1,0.8,6.1,0.8,9.2c0.1-4.9,0-9.8-0.8-14.6c-0.4-2.4-1-4.8-2.1-6.9c-0.7-1.3-1.8-3.2-3.3-3.4
				c-0.5-0.1-1,0.1-1.5,0.4c-0.7,0.5-1.1,1.2-1.5,1.9c-1.9,3.5-2.6,7.6-3,11.6c-0.3,3.7-0.4,7.5-0.3,11.2c0.1-2,0.2-3.9,0.3-5.9
				C494.5,385.6,495.2,381.6,497.1,378.1z"/>
			<path d="M500.1,443.6c2.8-14.6,5.4-29.3,6.1-44.2c0.1-1.4,0.1-2.8,0.2-4.1c-0.1-3.1-0.3-6.2-0.8-9.2c-0.4-2.4-1-4.8-2.1-6.9
				c-0.7-1.3-1.8-3.2-3.3-3.4c-0.5-0.1-1,0.1-1.5,0.4c-0.7,0.5-1.1,1.2-1.5,1.9c-1.9,3.5-2.6,7.6-3,11.6c-0.2,2-0.3,3.9-0.3,5.9
				c0.1,5.5,0.6,10.9,1.3,16.3C496.3,422.5,498,433.1,500.1,443.6z"/>
		</g>
	</g>
	<g>
		<path d="M204.7,665c0.1,5.3,0.1,10.6,0.2,15.9c0.2,19.7-5.7,31.1-18,32.6c-1.9,0.3-3.9,0.5-5.8,0.8c0.1,14.3,0.1,28.5,0.2,42.8
			c-4.1,0-8.3,0-12.4,0.1c0-36.4,0-72.9,0-109.3c5.9-2.3,11.8-4.5,17.7-6.7C198.4,636.7,204.5,645.4,204.7,665z M180.8,659.6
			c0.1,12.8,0.1,25.7,0.2,38.5c1.9-0.4,3.9-0.7,5.8-1.1c3.9-0.7,6-3.8,5.9-12.2c0-5.9-0.1-11.8-0.1-17.7c-0.1-8.4-2.2-10.5-6-9.3
			C184.6,658.4,182.7,659,180.8,659.6z"/>
		<path d="M239.9,756.9c-0.7-3.4-1.2-5.5-1.4-16.3c-0.1-6.9-0.2-13.9-0.3-20.8c-0.2-12.3-2.7-16.6-8.3-15.8
			c-1.4,0.2-2.8,0.4-4.3,0.5c0.2,17.5,0.5,35,0.7,52.4c-4.1,0-8.3,0-12.4,0c-0.5-41.6-0.9-83.3-1.4-124.9c6.1-2,12.2-4,18.4-5.9
			c12.7-4,18.3,4.8,18.6,25.9c0.1,3.6,0.1,7.1,0.2,10.7c0.2,14-2.2,23.6-7.7,28.7c6.2,3.5,8.4,13.6,8.6,27.8c0.1,7,0.2,14,0.3,21
			c0.1,6.6,0.3,11.5,1.6,16.5C248.3,756.9,244.1,756.9,239.9,756.9z M224.9,646.6c0.2,13.2,0.3,26.4,0.5,39.6
			c1.6-0.3,3.2-0.6,4.8-0.8c4.6-0.8,7.3-4.6,7.2-15.2c-0.1-4.4-0.1-8.7-0.2-13.1c-0.1-9.5-2.1-13.2-6.4-12
			C228.8,645.5,226.8,646,224.9,646.6z"/>
		<path d="M259,618c4.1-1.1,8.2-2.2,12.3-3.3c0.8,47.3,1.6,94.7,2.3,142c-4.1,0-8.3,0-12.4,0C260.5,710.6,259.8,664.3,259,618z"/>
		<path d="M310.3,713c2.2-35.9,4.5-72.1,6.7-108.8c5.8-1.2,11.6-2.3,17.4-3.4c0.8,51.9,1.6,103.9,2.4,155.8c-3.9,0-7.8,0-11.8,0
			c-0.6-36.7-1.2-73.4-1.8-110.1c-2.3,37.1-4.6,73.8-6.8,110.2c-3.9,0-7.8,0-11.8,0c-3.7-35.2-7.3-69.9-11-104.1
			c0.6,34.7,1.2,69.4,1.7,104.1c-3.6,0-7.2,0-10.9,0c-0.8-48.2-1.6-96.5-2.4-144.7c5.7-1.4,11.5-2.8,17.3-4.1
			C303,642.5,306.7,677.5,310.3,713z"/>
		<path d="M359,664.1c5.7-0.5,11.5-1,17.2-1.5c0.1,7.7,0.2,15.5,0.3,23.2c-5.7,0.3-11.4,0.7-17.2,1.1c0.2,15.6,0.4,31.2,0.7,46.8
			c7.2-0.2,14.4-0.3,21.5-0.5c0.1,7.8,0.2,15.5,0.3,23.3c-11.3,0-22.6,0-33.9,0.1c-0.8-52.6-1.5-105.2-2.3-157.7
			c11.4-2,22.8-3.7,34.3-5.2c0.1,7.8,0.2,15.5,0.3,23.3c-7.2,0.8-14.5,1.7-21.7,2.7C358.5,634.5,358.7,649.3,359,664.1z"/>
		
			<linearGradient id="SVGID_00000031893284111619897080000016000006774818562982_" gradientUnits="userSpaceOnUse" x1="407.2748" y1="879.6279" x2="407.2748" y2="640.087">
			<stop  offset="0" style="stop-color:#3256AA"/>
			<stop  offset="1" style="stop-color:#1586FF"/>
		</linearGradient>
		<path style="fill:url(#SVGID_00000031893284111619897080000016000006774818562982_);" d="M406.4,588.6c12.3-1.3,18.8,13.6,19,40.4
			c0,1.8,0,3.5,0,5.3c-4,0.2-7.9,0.5-11.9,0.8c0-2.3,0-4.6-0.1-6.9c-0.1-11.9-2.4-16.2-6.5-15.9c-4,0.4-6.3,5.1-6.1,16.9
			c0.4,33.8,25,39,25.3,87.1c0.2,26.9-6,42.2-18.2,42.2c-12.2,0-18.7-15-19-41.2c0-3.4-0.1-6.7-0.1-10.1c3.9-0.2,7.9-0.3,11.8-0.4
			c0,3.9,0.1,7.9,0.1,11.8c0.1,11.8,2.7,16,6.6,16c4-0.1,6.4-4.4,6.3-16.3c-0.3-34.4-24.9-39.6-25.4-86.2
			C388,605.8,394.1,590,406.4,588.6z"/>
		
			<linearGradient id="SVGID_00000119801793550758416800000005727783838343124630_" gradientUnits="userSpaceOnUse" x1="452.6113" y1="879.6279" x2="452.6113" y2="640.087">
			<stop  offset="0" style="stop-color:#3256AA"/>
			<stop  offset="1" style="stop-color:#2D8FD0"/>
		</linearGradient>
		<path style="fill:url(#SVGID_00000119801793550758416800000005727783838343124630_);" d="M471.5,693c0,7.5,0,15.1,0.1,22.6
			c0.1,27.3-6.2,42.8-18.4,42.8c-12.2,0-18.7-15.4-18.9-42.3c-0.2-29.2-0.4-58.3-0.6-87.5c-0.2-26.9,6.1-42.8,18.6-43.5
			c12.5-0.7,19,14.8,19,42c0,5.5,0,11,0.1,16.5c-4,0.1-7.9,0.2-11.9,0.3c0-6.1-0.1-12.1-0.1-18.2c-0.1-12.1-2.6-16.6-6.6-16.5
			c-4,0.2-6.5,4.9-6.5,17c0.2,30.4,0.4,60.9,0.5,91.3c0.1,12.1,2.6,16.4,6.6,16.4c4,0,6.4-4.4,6.4-16.5c0-8.1-0.1-16.2-0.1-24.3
			C463.6,693.1,467.5,693,471.5,693z"/>
		
			<linearGradient id="SVGID_00000016776528692329544090000008767462622651946910_" gradientUnits="userSpaceOnUse" x1="499.7063" y1="879.6279" x2="499.7063" y2="640.087">
			<stop  offset="0" style="stop-color:#3256AA"/>
			<stop  offset="1" style="stop-color:#2D8FD0"/>
		</linearGradient>
		<path style="fill:url(#SVGID_00000016776528692329544090000008767462622651946910_);" d="M521.5,756.5c-4.2,0-8.4,0-12.6,0
			c-0.7-10.3-1.4-20.6-2.1-31c-5.1,0-10.2,0-15.3,0c-0.7,10.3-1.4,20.6-2.1,31c-3.8,0-7.6,0-11.4,0c4.1-56.8,8.2-113.7,12.5-170.7
			c6.2-0.1,12.4-0.1,18.6,0C513.2,642.7,517.4,699.6,521.5,756.5z M493,702.3c4,0,8,0,12.1,0c-2-28.8-4-57.6-6-86.3
			C497,644.8,495,673.6,493,702.3z"/>
		
			<linearGradient id="SVGID_00000005967580034936539530000012641070765479097277_" gradientUnits="userSpaceOnUse" x1="545.7333" y1="879.6279" x2="545.7333" y2="640.087">
			<stop  offset="0" style="stop-color:#3256AA"/>
			<stop  offset="1" style="stop-color:#2D8FD0"/>
		</linearGradient>
		<path style="fill:url(#SVGID_00000005967580034936539530000012641070765479097277_);" d="M529.7,586.2c4.2,0.1,8.5,0.3,12.7,0.5
			c-0.2,48.5-0.5,97-0.7,145.5c6.8,0,13.7,0.1,20.5,0.2c-0.1,8-0.1,16.1-0.2,24.1c-11,0-22,0-32.9,0
			C529.4,699.7,529.6,643,529.7,586.2z"/>
		
			<linearGradient id="SVGID_00000083064141890294808850000008838349609299604387_" gradientUnits="userSpaceOnUse" x1="587.3461" y1="879.6279" x2="587.3461" y2="640.087">
			<stop  offset="0" style="stop-color:#3256AA"/>
			<stop  offset="1" style="stop-color:#2D8FD0"/>
		</linearGradient>
		<path style="fill:url(#SVGID_00000083064141890294808850000008838349609299604387_);" d="M582.8,659.9c5.7,0.3,11.5,0.6,17.2,1
			c-0.1,7.9-0.2,15.7-0.2,23.6c-5.7-0.3-11.5-0.5-17.2-0.8c-0.1,16.3-0.3,32.6-0.4,48.9c7.2,0.1,14.4,0.2,21.5,0.3
			c-0.1,7.8-0.2,15.7-0.3,23.5c-11.3,0-22.6,0-33.9,0c0.4-56,0.9-112,1.3-168c11.5,0.9,23,2,34.5,3.3c-0.1,7.8-0.2,15.7-0.3,23.5
			c-7.3-0.7-14.5-1.4-21.8-1.9C583.1,628.9,582.9,644.4,582.8,659.9z"/>
		<path d="M640,710.2c3.4-37.7,6.7-75.1,10.1-112.1c5.8,1,11.6,2,17.4,3.1c-0.8,51.8-1.6,103.6-2.4,155.5c-3.9,0-7.8,0-11.8,0
			c0.6-37.7,1.1-75.3,1.7-113c-3.4,37.3-6.9,75-10.3,113c-3.9,0-7.8,0-11.8,0c-2.6-37.9-5.2-76.2-7.8-114.7
			c-0.5,38.2-1,76.4-1.5,114.7c-3.6,0-7.2,0-10.9,0c0.6-54.5,1.3-109.1,1.9-163.6c5.8,0.7,11.7,1.5,17.5,2.4
			C634.9,633.9,637.5,672.2,640,710.2z"/>
		<path d="M690,669.4c5.7,0.7,11.4,1.4,17.1,2.2c-0.1,7-0.2,14-0.3,21c-5.7-0.6-11.4-1.1-17.1-1.7c-0.2,14.7-0.5,29.4-0.7,44.2
			c7.2,0.2,14.3,0.5,21.5,0.7c-0.1,7-0.2,13.9-0.3,20.9c-11.3,0-22.6-0.1-33.9-0.1c0.8-51.1,1.6-102.3,2.4-153.4
			c11.3,2.3,22.7,4.7,33.9,7.4c-0.1,7-0.2,13.9-0.3,20.9c-7.1-1.5-14.3-2.8-21.5-4.2C690.5,641.4,690.3,655.4,690,669.4z"/>
		<path d="M722.1,613c6.5,1.6,13,3.3,19.5,5.1c12.3,3.5,18.1,17,17.8,38.2c-0.3,22.5-0.7,45-1,67.5c-0.3,21.3-6.6,32.9-19,32.9
			c-6.6,0-13.1,0-19.7-0.1C720.5,708.9,721.3,660.9,722.1,613z M734.1,636.3c-0.5,33.5-1.1,66.9-1.6,100.4c2.3,0.1,4.7,0.2,7,0.3
			c4,0.2,6.4-3.3,6.5-13c0.4-23.8,0.7-47.5,1.1-71.3c0.2-9.8-2.1-13.9-6.1-14.8C738.8,637.4,736.5,636.8,734.1,636.3z"/>
		<path d="M769.6,626.3c4.1,1.3,8.1,2.5,12.2,3.9c-0.5,42.3-1,84.5-1.5,126.8c-4.1,0-8.3,0-12.4,0
			C768.4,713.4,769,669.8,769.6,626.3z"/>
		<path d="M831.5,757.2c-4.2,0-8.4,0-12.6-0.1c-0.7-6.9-1.4-13.8-2.1-20.8c-5.1-0.3-10.1-0.7-15.2-1c-0.8,7.2-1.6,14.5-2.3,21.7
			c-3.8,0-7.6,0-11.4,0c4.7-41.4,9.3-81.5,13.7-120.1c5.9,2.1,11.8,4.2,17.6,6.4C823.2,682.7,827.3,720.7,831.5,757.2z M803.4,719.2
			c4,0.4,7.9,0.9,11.9,1.4c-1.9-19.7-3.7-39.7-5.5-60C807.7,679.7,805.5,699.3,803.4,719.2z"/>
	</g>
	<g>
		
			<linearGradient id="SVGID_00000041284244209979524880000013516744128077594757_" gradientUnits="userSpaceOnUse" x1="281.7667" y1="884.1774" x2="261.5544" y2="768.2228">
			<stop  offset="0" style="stop-color:#3256AA"/>
			<stop  offset="1" style="stop-color:#2D8FD0"/>
		</linearGradient>
		<path style="fill:url(#SVGID_00000041284244209979524880000013516744128077594757_);" d="M266.9,775.9c5.2,0,7.8,4,7.8,11.1v1.4
			h-5v-1.8c0-3.2-1-4.4-2.7-4.4c-1.7,0-2.7,1.2-2.7,4.4c0,9.1,10.4,10.8,10.4,23.4c0,7.1-2.7,11.1-7.9,11.1c-5.2,0-7.9-4-7.9-11.1
			v-2.7h5v3.2c0,3.2,1.1,4.3,2.8,4.3c1.7,0,2.8-1.1,2.8-4.3c0-9.1-10.4-10.8-10.4-23.4C259.1,780,261.7,775.9,266.9,775.9z"/>
		
			<linearGradient id="SVGID_00000103984252198215252170000016276283286174416571_" gradientUnits="userSpaceOnUse" x1="318.5536" y1="877.765" x2="298.3414" y2="761.8104">
			<stop  offset="0" style="stop-color:#3256AA"/>
			<stop  offset="1" style="stop-color:#2D8FD0"/>
		</linearGradient>
		<path style="fill:url(#SVGID_00000103984252198215252170000016276283286174416571_);" d="M312.7,804.2v5.9
			c0,7.1-2.7,11.1-7.9,11.1s-7.9-4-7.9-11.1v-23c0-7.1,2.7-11.1,7.9-11.1s7.9,4,7.9,11.1v4.3h-5v-4.7c0-3.2-1.1-4.4-2.8-4.4
			c-1.7,0-2.8,1.2-2.8,4.4v23.9c0,3.2,1.1,4.3,2.8,4.3c1.7,0,2.8-1.1,2.8-4.3v-6.3H312.7z"/>
		
			<linearGradient id="SVGID_00000132047188490878864710000003156833003349409412_" gradientUnits="userSpaceOnUse" x1="353.2739" y1="871.7128" x2="333.0616" y2="755.7582">
			<stop  offset="0" style="stop-color:#3256AA"/>
			<stop  offset="1" style="stop-color:#2D8FD0"/>
		</linearGradient>
		<path style="fill:url(#SVGID_00000132047188490878864710000003156833003349409412_);" d="M352.6,820.7h-5.4l-0.9-8h-6.5l-0.9,8
			h-4.9l5.4-44.2h7.8L352.6,820.7z M340.4,806.6h5.1l-2.6-22.4L340.4,806.6z"/>
		
			<linearGradient id="SVGID_00000105428374052812719880000004386205736107437702_" gradientUnits="userSpaceOnUse" x1="389.7933" y1="865.347" x2="369.5811" y2="749.3925">
			<stop  offset="0" style="stop-color:#3256AA"/>
			<stop  offset="1" style="stop-color:#2D8FD0"/>
		</linearGradient>
		<path style="fill:url(#SVGID_00000105428374052812719880000004386205736107437702_);" d="M374.4,776.4h5.3v37.9h8.8v6.3h-14.1
			V776.4z"/>
		
			<linearGradient id="SVGID_00000019665384780460288060000005898797422965089152_" gradientUnits="userSpaceOnUse" x1="427.9568" y1="858.6947" x2="407.7445" y2="742.7401">
			<stop  offset="0" style="stop-color:#3256AA"/>
			<stop  offset="1" style="stop-color:#2D8FD0"/>
		</linearGradient>
		<path style="fill:url(#SVGID_00000019665384780460288060000005898797422965089152_);" d="M415.5,795.1h7.3v6.3h-7.3v13h9.2v6.3
			h-14.5v-44.2h14.5v6.3h-9.2V795.1z"/>
		
			<linearGradient id="SVGID_00000037682002106156931200000016793203232283253423_" gradientUnits="userSpaceOnUse" x1="488.16" y1="848.2006" x2="467.9477" y2="732.246">
			<stop  offset="0" style="stop-color:#3256AA"/>
			<stop  offset="1" style="stop-color:#2D8FD0"/>
		</linearGradient>
		<path style="fill:url(#SVGID_00000037682002106156931200000016793203232283253423_);" d="M491.5,820.7h-5.4l-0.9-8h-6.5l-0.9,8
			h-4.9l5.4-44.2h7.8L491.5,820.7z M479.4,806.6h5.1l-2.6-22.4L479.4,806.6z"/>
		
			<linearGradient id="SVGID_00000129926739938100710130000014185944426965536168_" gradientUnits="userSpaceOnUse" x1="529.203" y1="841.0463" x2="508.9908" y2="725.0917">
			<stop  offset="0" style="stop-color:#3256AA"/>
			<stop  offset="1" style="stop-color:#2D8FD0"/>
		</linearGradient>
		<path style="fill:url(#SVGID_00000129926739938100710130000014185944426965536168_);" d="M518.1,788.6v32h-4.8v-44.2h6.7l5.5,26.5
			v-26.5h4.7v44.2h-5.5L518.1,788.6z"/>
		
			<linearGradient id="SVGID_00000020356717724601121540000016212140431265749900_" gradientUnits="userSpaceOnUse" x1="567.1212" y1="834.4366" x2="546.9089" y2="718.4821">
			<stop  offset="0" style="stop-color:#3256AA"/>
			<stop  offset="1" style="stop-color:#2D8FD0"/>
		</linearGradient>
		<path style="fill:url(#SVGID_00000020356717724601121540000016212140431265749900_);" d="M553.5,776.4h8.4c5.3,0,7.9,3.9,7.9,10.9
			v22.4c0,7.1-2.6,10.9-7.9,10.9h-8.4V776.4z M558.8,782.7v31.6h3c1.7,0,2.7-1.1,2.7-4.3v-23c0-3.2-1-4.3-2.7-4.3H558.8z"/>
		
			<linearGradient id="SVGID_00000083053095755495271220000008638673945756841604_" gradientUnits="userSpaceOnUse" x1="631.2961" y1="823.2502" x2="611.0839" y2="707.2957">
			<stop  offset="0" style="stop-color:#3256AA"/>
			<stop  offset="1" style="stop-color:#2D8FD0"/>
		</linearGradient>
		<path style="fill:url(#SVGID_00000083053095755495271220000008638673945756841604_);" d="M627.5,796h7.5v14
			c0,7.1-2.7,11.1-7.9,11.1c-5.2,0-7.9-4-7.9-11.1v-23c0-7.1,2.7-11.1,7.9-11.1c5.2,0,7.9,4,7.9,11.1v4.3h-5v-4.7
			c0-3.2-1.1-4.4-2.8-4.4c-1.7,0-2.8,1.2-2.8,4.4v23.9c0,3.2,1.1,4.3,2.8,4.3c1.7,0,2.8-1.1,2.8-4.3v-8.2h-2.4V796z"/>
		
			<linearGradient id="SVGID_00000065773071714870102620000001420940185943899781_" gradientUnits="userSpaceOnUse" x1="668.1932" y1="816.8186" x2="647.981" y2="700.8641">
			<stop  offset="0" style="stop-color:#3256AA"/>
			<stop  offset="1" style="stop-color:#2D8FD0"/>
		</linearGradient>
		<path style="fill:url(#SVGID_00000065773071714870102620000001420940185943899781_);" d="M668.9,820.7c-0.3-1.1-0.5-1.8-0.5-5.4
			v-7c0-4.1-1.1-5.6-3.5-5.6h-1.8v18h-5.3v-44.2h8c5.5,0,7.9,3.4,7.9,10.2v3.5c0,4.6-1.1,7.5-3.5,9c2.7,1.5,3.5,4.8,3.5,9.4v6.8
			c0,2.1,0,3.7,0.6,5.4H668.9z M663.1,782.7v13.6h2.1c2,0,3.2-1.1,3.2-4.7v-4.4c0-3.2-0.8-4.6-2.7-4.6H663.1z"/>
		
			<linearGradient id="SVGID_00000061445353771250624860000008943654285967821721_" gradientUnits="userSpaceOnUse" x1="706.2848" y1="810.1788" x2="686.0725" y2="694.2242">
			<stop  offset="0" style="stop-color:#3256AA"/>
			<stop  offset="1" style="stop-color:#2D8FD0"/>
		</linearGradient>
		<path style="fill:url(#SVGID_00000061445353771250624860000008943654285967821721_);" d="M696.2,787c0-7.1,2.9-11.1,8.1-11.1
			c5.2,0,8.1,4,8.1,11.1v23c0,7.1-2.9,11.1-8.1,11.1c-5.2,0-8.1-4-8.1-11.1V787z M701.5,810.5c0,3.2,1.1,4.4,2.8,4.4
			c1.7,0,2.8-1.2,2.8-4.4v-23.9c0-3.2-1.1-4.4-2.8-4.4c-1.7,0-2.8,1.2-2.8,4.4V810.5z"/>
		
			<linearGradient id="SVGID_00000075123058687958474940000002814949796930965900_" gradientUnits="userSpaceOnUse" x1="749.4677" y1="802.6515" x2="729.2554" y2="686.697">
			<stop  offset="0" style="stop-color:#3256AA"/>
			<stop  offset="1" style="stop-color:#2D8FD0"/>
		</linearGradient>
		<path style="fill:url(#SVGID_00000075123058687958474940000002814949796930965900_);" d="M747,797.1l-1.9,23.6h-7.3l-3.8-44.2h5.2
			l2.9,34.9l2.6-34.9h5.1l2.7,35.1l2.8-35.1h4.7l-3.8,44.2h-7.1L747,797.1z"/>
	</g>
</g>
</svg>
